M48
; DRILL file {KiCad 8.0.7} date 2026-01-14T12:01:31-0800
; FORMAT={-:-/ absolute / metric / decimal}
; #@! TF.CreationDate,2026-01-14T12:01:31-08:00
; #@! TF.GenerationSoftware,Kicad,Pcbnew,8.0.7
; #@! TF.FileFunction,Plated,1,2,PTH
FMAT,2
METRIC
; #@! TA.AperFunction,Plated,PTH,ViaDrill
T1C0.400
; #@! TA.AperFunction,Plated,PTH,ComponentDrill
T2C2.200
%
G90
G05
T1
X202.625Y-87.375
X202.625Y-88.292
X202.625Y-89.208
X202.625Y-90.125
X203.9Y-89.85
X203.9Y-95.45
X203.9Y-96.925
X204.42Y-85.14
X205.7Y-92.645
X205.8Y-88.85
X208.45Y-90.8
X210.5Y-90.8
X210.7Y-94.533
X210.7Y-95.45
X210.7Y-96.367
X211.29Y-82.563
X211.29Y-83.48
X211.29Y-84.397
X211.5Y-85.3
X212.55Y-90.8
X213.05Y-85.3
X215.593Y-89.57
X216.51Y-89.57
X217.427Y-89.57
T2
X200.0Y-84.0
X200.0Y-95.0
X216.0Y-84.0
X216.0Y-95.0
M30
