%TF.GenerationSoftware,KiCad,Pcbnew,8.0.7*%
%TF.CreationDate,2026-01-14T12:01:29-08:00*%
%TF.ProjectId,3V3-500mA,3356332d-3530-4306-9d41-2e6b69636164,rev?*%
%TF.SameCoordinates,Original*%
%TF.FileFunction,Copper,L2,Bot*%
%TF.FilePolarity,Positive*%
%FSLAX46Y46*%
G04 Gerber Fmt 4.6, Leading zero omitted, Abs format (unit mm)*
G04 Created by KiCad (PCBNEW 8.0.7) date 2026-01-14 12:01:29*
%MOMM*%
%LPD*%
G01*
G04 APERTURE LIST*
%TA.AperFunction,ComponentPad*%
%ADD10C,3.800000*%
%TD*%
%TA.AperFunction,ViaPad*%
%ADD11C,0.600000*%
%TD*%
%TA.AperFunction,Conductor*%
%ADD12C,0.200000*%
%TD*%
G04 APERTURE END LIST*
D10*
%TO.P,H4,1,1*%
%TO.N,GND*%
X216000000Y-84000000D03*
%TD*%
%TO.P,H3,1,1*%
%TO.N,GND*%
X200000000Y-84000000D03*
%TD*%
%TO.P,H2,1,1*%
%TO.N,GND*%
X200000000Y-95000000D03*
%TD*%
%TO.P,H1,1,1*%
%TO.N,GND*%
X216000000Y-95000000D03*
%TD*%
D11*
%TO.N,GND*%
X205700000Y-92645000D03*
X210700000Y-95450000D03*
X210700000Y-96366668D03*
X210700000Y-94533334D03*
X216510000Y-89570000D03*
X217426668Y-89570000D03*
X215593334Y-89570000D03*
X211290000Y-83480000D03*
X211290000Y-84396668D03*
X211290000Y-82563334D03*
%TO.N,5V*%
X204420000Y-85140000D03*
%TO.N,GND*%
X203900000Y-95450000D03*
X212550000Y-90800000D03*
X210500000Y-90800000D03*
X208450000Y-90800000D03*
%TO.N,5V*%
X203900000Y-96925000D03*
%TO.N,GND*%
X202625000Y-90125000D03*
X202625000Y-89208332D03*
X202625000Y-87375000D03*
X203900000Y-89850000D03*
X202625000Y-88291666D03*
X205800000Y-88850000D03*
X211500000Y-85300000D03*
X213050000Y-85300000D03*
%TD*%
D12*
%TO.N,5V*%
X204420000Y-85140000D02*
X206610000Y-85140000D01*
X206610000Y-85140000D02*
X207620000Y-86150000D01*
X207620000Y-86150000D02*
X207620000Y-96440000D01*
X207620000Y-96440000D02*
X207135000Y-96925000D01*
X207135000Y-96925000D02*
X203900000Y-96925000D01*
%TD*%
%TA.AperFunction,Conductor*%
%TO.N,GND*%
G36*
X216003736Y-81500726D02*
G01*
X216293796Y-81518271D01*
X216308659Y-81520076D01*
X216590798Y-81571780D01*
X216605335Y-81575363D01*
X216879172Y-81660695D01*
X216893163Y-81666000D01*
X217154743Y-81783727D01*
X217167989Y-81790680D01*
X217413465Y-81939075D01*
X217425776Y-81947573D01*
X217651573Y-82124473D01*
X217662781Y-82134403D01*
X217865596Y-82337218D01*
X217875526Y-82348426D01*
X217995481Y-82501538D01*
X218052422Y-82574217D01*
X218060928Y-82586540D01*
X218209316Y-82832004D01*
X218216275Y-82845263D01*
X218333997Y-83106831D01*
X218339306Y-83120832D01*
X218424635Y-83394663D01*
X218428219Y-83409201D01*
X218479923Y-83691340D01*
X218481728Y-83706205D01*
X218499274Y-83996263D01*
X218499500Y-84003750D01*
X218499500Y-94996249D01*
X218499274Y-95003736D01*
X218481728Y-95293794D01*
X218479923Y-95308659D01*
X218428219Y-95590798D01*
X218424635Y-95605336D01*
X218339306Y-95879167D01*
X218333997Y-95893168D01*
X218216275Y-96154736D01*
X218209316Y-96167995D01*
X218060928Y-96413459D01*
X218052422Y-96425782D01*
X217875526Y-96651573D01*
X217865596Y-96662781D01*
X217662781Y-96865596D01*
X217651573Y-96875526D01*
X217425782Y-97052422D01*
X217413459Y-97060928D01*
X217167995Y-97209316D01*
X217154736Y-97216275D01*
X216893168Y-97333997D01*
X216879167Y-97339306D01*
X216605336Y-97424635D01*
X216590798Y-97428219D01*
X216308659Y-97479923D01*
X216293794Y-97481728D01*
X216003736Y-97499274D01*
X215996249Y-97499500D01*
X204261638Y-97499500D01*
X204194599Y-97479815D01*
X204148844Y-97427011D01*
X204138900Y-97357853D01*
X204167925Y-97294297D01*
X204194599Y-97271184D01*
X204198049Y-97268967D01*
X204282882Y-97171063D01*
X204282881Y-97171063D01*
X204285278Y-97168298D01*
X204344056Y-97130523D01*
X204378992Y-97125500D01*
X207174880Y-97125500D01*
X207174882Y-97125500D01*
X207248574Y-97094976D01*
X207789976Y-96553574D01*
X207820500Y-96479882D01*
X207820500Y-96400117D01*
X207820500Y-86110118D01*
X207789976Y-86036426D01*
X207733574Y-85980024D01*
X206723574Y-84970024D01*
X206649883Y-84939500D01*
X206649882Y-84939500D01*
X204898992Y-84939500D01*
X204831953Y-84919815D01*
X204805278Y-84896702D01*
X204718049Y-84796033D01*
X204609069Y-84725996D01*
X204609065Y-84725994D01*
X204609064Y-84725994D01*
X204484774Y-84689500D01*
X204484772Y-84689500D01*
X204355228Y-84689500D01*
X204355226Y-84689500D01*
X204230935Y-84725994D01*
X204230932Y-84725995D01*
X204230931Y-84725996D01*
X204179677Y-84758934D01*
X204121950Y-84796033D01*
X204037118Y-84893937D01*
X204037117Y-84893938D01*
X203983302Y-85011774D01*
X203964867Y-85140000D01*
X203983302Y-85268225D01*
X204016310Y-85340500D01*
X204037118Y-85386063D01*
X204121951Y-85483967D01*
X204230931Y-85554004D01*
X204355225Y-85590499D01*
X204355227Y-85590500D01*
X204355228Y-85590500D01*
X204484773Y-85590500D01*
X204484773Y-85590499D01*
X204609069Y-85554004D01*
X204718049Y-85483967D01*
X204802882Y-85386063D01*
X204802881Y-85386063D01*
X204805278Y-85383298D01*
X204864056Y-85345523D01*
X204898992Y-85340500D01*
X206475588Y-85340500D01*
X206542627Y-85360185D01*
X206563269Y-85376819D01*
X207383181Y-86196731D01*
X207416666Y-86258054D01*
X207419500Y-86284412D01*
X207419500Y-96305588D01*
X207399815Y-96372627D01*
X207383181Y-96393269D01*
X207088269Y-96688181D01*
X207026946Y-96721666D01*
X207000588Y-96724500D01*
X204378992Y-96724500D01*
X204311953Y-96704815D01*
X204285278Y-96681702D01*
X204198049Y-96581033D01*
X204089069Y-96510996D01*
X204089065Y-96510994D01*
X204089064Y-96510994D01*
X203964774Y-96474500D01*
X203964772Y-96474500D01*
X203835228Y-96474500D01*
X203835226Y-96474500D01*
X203710935Y-96510994D01*
X203710932Y-96510995D01*
X203710931Y-96510996D01*
X203659677Y-96543934D01*
X203601950Y-96581033D01*
X203517118Y-96678937D01*
X203517117Y-96678938D01*
X203463302Y-96796774D01*
X203444867Y-96925000D01*
X203463302Y-97053225D01*
X203496309Y-97125499D01*
X203517118Y-97171063D01*
X203601951Y-97268967D01*
X203605401Y-97271184D01*
X203608089Y-97274286D01*
X203608652Y-97274774D01*
X203608581Y-97274854D01*
X203651156Y-97323988D01*
X203661100Y-97393146D01*
X203632075Y-97456702D01*
X203573297Y-97494477D01*
X203538362Y-97499500D01*
X200003751Y-97499500D01*
X199996264Y-97499274D01*
X199706205Y-97481728D01*
X199691340Y-97479923D01*
X199409201Y-97428219D01*
X199394663Y-97424635D01*
X199120832Y-97339306D01*
X199106831Y-97333997D01*
X198845263Y-97216275D01*
X198832004Y-97209316D01*
X198768724Y-97171062D01*
X198586537Y-97060926D01*
X198574217Y-97052422D01*
X198348426Y-96875526D01*
X198337218Y-96865596D01*
X198134403Y-96662781D01*
X198124473Y-96651573D01*
X197947573Y-96425776D01*
X197939075Y-96413465D01*
X197790680Y-96167989D01*
X197783727Y-96154743D01*
X197666000Y-95893163D01*
X197660693Y-95879167D01*
X197575364Y-95605336D01*
X197571780Y-95590798D01*
X197520076Y-95308659D01*
X197518271Y-95293794D01*
X197500726Y-95003736D01*
X197500500Y-94996249D01*
X197500500Y-84003750D01*
X197500726Y-83996263D01*
X197518271Y-83706205D01*
X197520076Y-83691340D01*
X197571780Y-83409201D01*
X197575364Y-83394663D01*
X197652096Y-83148422D01*
X197660696Y-83120822D01*
X197665998Y-83106841D01*
X197783731Y-82845249D01*
X197790676Y-82832016D01*
X197939080Y-82586526D01*
X197947567Y-82574230D01*
X198124480Y-82348417D01*
X198134395Y-82337226D01*
X198337226Y-82134395D01*
X198348417Y-82124480D01*
X198574230Y-81947567D01*
X198586526Y-81939080D01*
X198832016Y-81790676D01*
X198845249Y-81783731D01*
X199106841Y-81665998D01*
X199120822Y-81660696D01*
X199394668Y-81575362D01*
X199409197Y-81571780D01*
X199691344Y-81520075D01*
X199706201Y-81518271D01*
X199996264Y-81500726D01*
X200003751Y-81500500D01*
X200065892Y-81500500D01*
X215934108Y-81500500D01*
X215996249Y-81500500D01*
X216003736Y-81500726D01*
G37*
%TD.AperFunction*%
%TD*%
M02*
