%TF.GenerationSoftware,KiCad,Pcbnew,8.0.7*%
%TF.CreationDate,2026-01-14T12:01:32-08:00*%
%TF.ProjectId,3V3-500mA,3356332d-3530-4306-9d41-2e6b69636164,rev?*%
%TF.SameCoordinates,Original*%
%TF.FileFunction,Drillmap*%
%TF.FilePolarity,Positive*%
%FSLAX45Y45*%
G04 Gerber Fmt 4.5, Leading zero omitted, Abs format (unit mm)*
G04 Created by KiCad (PCBNEW 8.0.7) date 2026-01-14 12:01:32*
%MOMM*%
%LPD*%
G01*
G04 APERTURE LIST*
%ADD10C,0.050000*%
%ADD11C,0.200000*%
%ADD12C,0.100000*%
%ADD13C,0.220000*%
G04 APERTURE END LIST*
D10*
X19700000Y-9500000D02*
X19700000Y-8400000D01*
X21600000Y-9800000D02*
X20000000Y-9800000D01*
X21900000Y-8400000D02*
X21900000Y-9500000D01*
X21600000Y-8100000D02*
X20000000Y-8100000D01*
X19700000Y-8400000D02*
G75*
G02*
X20000000Y-8100000I300000J0D01*
G01*
X20000000Y-9800000D02*
G75*
G02*
X19700000Y-9500000I0J300000D01*
G01*
X21900000Y-9500000D02*
G75*
G02*
X21600000Y-9800000I-300000J0D01*
G01*
X21600000Y-8100000D02*
G75*
G02*
X21900000Y-8400000I0J-300000D01*
G01*
D11*
D12*
X20242500Y-8717500D02*
X20282500Y-8757500D01*
X20282500Y-8717500D02*
X20242500Y-8757500D01*
X20242500Y-8809167D02*
X20282500Y-8849167D01*
X20282500Y-8809167D02*
X20242500Y-8849167D01*
X20242500Y-8900833D02*
X20282500Y-8940833D01*
X20282500Y-8900833D02*
X20242500Y-8940833D01*
X20242500Y-8992500D02*
X20282500Y-9032500D01*
X20282500Y-8992500D02*
X20242500Y-9032500D01*
X20370000Y-8965000D02*
X20410000Y-9005000D01*
X20410000Y-8965000D02*
X20370000Y-9005000D01*
X20370000Y-9525000D02*
X20410000Y-9565000D01*
X20410000Y-9525000D02*
X20370000Y-9565000D01*
X20370000Y-9672500D02*
X20410000Y-9712500D01*
X20410000Y-9672500D02*
X20370000Y-9712500D01*
X20422000Y-8494000D02*
X20462000Y-8534000D01*
X20462000Y-8494000D02*
X20422000Y-8534000D01*
X20550000Y-9244500D02*
X20590000Y-9284500D01*
X20590000Y-9244500D02*
X20550000Y-9284500D01*
X20560000Y-8865000D02*
X20600000Y-8905000D01*
X20600000Y-8865000D02*
X20560000Y-8905000D01*
X20825000Y-9060000D02*
X20865000Y-9100000D01*
X20865000Y-9060000D02*
X20825000Y-9100000D01*
X21030000Y-9060000D02*
X21070000Y-9100000D01*
X21070000Y-9060000D02*
X21030000Y-9100000D01*
X21050000Y-9433333D02*
X21090000Y-9473333D01*
X21090000Y-9433333D02*
X21050000Y-9473333D01*
X21050000Y-9525000D02*
X21090000Y-9565000D01*
X21090000Y-9525000D02*
X21050000Y-9565000D01*
X21050000Y-9616667D02*
X21090000Y-9656667D01*
X21090000Y-9616667D02*
X21050000Y-9656667D01*
X21109000Y-8236333D02*
X21149000Y-8276333D01*
X21149000Y-8236333D02*
X21109000Y-8276333D01*
X21109000Y-8328000D02*
X21149000Y-8368000D01*
X21149000Y-8328000D02*
X21109000Y-8368000D01*
X21109000Y-8419667D02*
X21149000Y-8459667D01*
X21149000Y-8419667D02*
X21109000Y-8459667D01*
X21130000Y-8510000D02*
X21170000Y-8550000D01*
X21170000Y-8510000D02*
X21130000Y-8550000D01*
X21235000Y-9060000D02*
X21275000Y-9100000D01*
X21275000Y-9060000D02*
X21235000Y-9100000D01*
X21285000Y-8510000D02*
X21325000Y-8550000D01*
X21325000Y-8510000D02*
X21285000Y-8550000D01*
X21539333Y-8937000D02*
X21579333Y-8977000D01*
X21579333Y-8937000D02*
X21539333Y-8977000D01*
X21631000Y-8937000D02*
X21671000Y-8977000D01*
X21671000Y-8937000D02*
X21631000Y-8977000D01*
X21722667Y-8937000D02*
X21762667Y-8977000D01*
X21762667Y-8937000D02*
X21722667Y-8977000D01*
D13*
X20110000Y-8400000D02*
G75*
G02*
X19890000Y-8400000I-110000J0D01*
G01*
X19890000Y-8400000D02*
G75*
G02*
X20110000Y-8400000I110000J0D01*
G01*
X20110000Y-9500000D02*
G75*
G02*
X19890000Y-9500000I-110000J0D01*
G01*
X19890000Y-9500000D02*
G75*
G02*
X20110000Y-9500000I110000J0D01*
G01*
X21710000Y-8400000D02*
G75*
G02*
X21490000Y-8400000I-110000J0D01*
G01*
X21490000Y-8400000D02*
G75*
G02*
X21710000Y-8400000I110000J0D01*
G01*
X21710000Y-9500000D02*
G75*
G02*
X21490000Y-9500000I-110000J0D01*
G01*
X21490000Y-9500000D02*
G75*
G02*
X21710000Y-9500000I110000J0D01*
G01*
D11*
X19958277Y-10113984D02*
X19958277Y-9913984D01*
X19958277Y-9913984D02*
X20005896Y-9913984D01*
X20005896Y-9913984D02*
X20034467Y-9923508D01*
X20034467Y-9923508D02*
X20053515Y-9942555D01*
X20053515Y-9942555D02*
X20063039Y-9961603D01*
X20063039Y-9961603D02*
X20072563Y-9999698D01*
X20072563Y-9999698D02*
X20072563Y-10028270D01*
X20072563Y-10028270D02*
X20063039Y-10066365D01*
X20063039Y-10066365D02*
X20053515Y-10085412D01*
X20053515Y-10085412D02*
X20034467Y-10104460D01*
X20034467Y-10104460D02*
X20005896Y-10113984D01*
X20005896Y-10113984D02*
X19958277Y-10113984D01*
X20158277Y-10113984D02*
X20158277Y-9980650D01*
X20158277Y-10018746D02*
X20167801Y-9999698D01*
X20167801Y-9999698D02*
X20177324Y-9990174D01*
X20177324Y-9990174D02*
X20196372Y-9980650D01*
X20196372Y-9980650D02*
X20215420Y-9980650D01*
X20282086Y-10113984D02*
X20282086Y-9980650D01*
X20282086Y-9913984D02*
X20272563Y-9923508D01*
X20272563Y-9923508D02*
X20282086Y-9933031D01*
X20282086Y-9933031D02*
X20291610Y-9923508D01*
X20291610Y-9923508D02*
X20282086Y-9913984D01*
X20282086Y-9913984D02*
X20282086Y-9933031D01*
X20405896Y-10113984D02*
X20386848Y-10104460D01*
X20386848Y-10104460D02*
X20377324Y-10085412D01*
X20377324Y-10085412D02*
X20377324Y-9913984D01*
X20510658Y-10113984D02*
X20491610Y-10104460D01*
X20491610Y-10104460D02*
X20482086Y-10085412D01*
X20482086Y-10085412D02*
X20482086Y-9913984D01*
X20739229Y-10113984D02*
X20739229Y-9913984D01*
X20739229Y-9913984D02*
X20805896Y-10056841D01*
X20805896Y-10056841D02*
X20872563Y-9913984D01*
X20872563Y-9913984D02*
X20872563Y-10113984D01*
X21053515Y-10113984D02*
X21053515Y-10009222D01*
X21053515Y-10009222D02*
X21043991Y-9990174D01*
X21043991Y-9990174D02*
X21024944Y-9980650D01*
X21024944Y-9980650D02*
X20986848Y-9980650D01*
X20986848Y-9980650D02*
X20967801Y-9990174D01*
X21053515Y-10104460D02*
X21034467Y-10113984D01*
X21034467Y-10113984D02*
X20986848Y-10113984D01*
X20986848Y-10113984D02*
X20967801Y-10104460D01*
X20967801Y-10104460D02*
X20958277Y-10085412D01*
X20958277Y-10085412D02*
X20958277Y-10066365D01*
X20958277Y-10066365D02*
X20967801Y-10047317D01*
X20967801Y-10047317D02*
X20986848Y-10037793D01*
X20986848Y-10037793D02*
X21034467Y-10037793D01*
X21034467Y-10037793D02*
X21053515Y-10028270D01*
X21148753Y-9980650D02*
X21148753Y-10180650D01*
X21148753Y-9990174D02*
X21167801Y-9980650D01*
X21167801Y-9980650D02*
X21205896Y-9980650D01*
X21205896Y-9980650D02*
X21224944Y-9990174D01*
X21224944Y-9990174D02*
X21234467Y-9999698D01*
X21234467Y-9999698D02*
X21243991Y-10018746D01*
X21243991Y-10018746D02*
X21243991Y-10075889D01*
X21243991Y-10075889D02*
X21234467Y-10094936D01*
X21234467Y-10094936D02*
X21224944Y-10104460D01*
X21224944Y-10104460D02*
X21205896Y-10113984D01*
X21205896Y-10113984D02*
X21167801Y-10113984D01*
X21167801Y-10113984D02*
X21148753Y-10104460D01*
X21329705Y-10094936D02*
X21339229Y-10104460D01*
X21339229Y-10104460D02*
X21329705Y-10113984D01*
X21329705Y-10113984D02*
X21320182Y-10104460D01*
X21320182Y-10104460D02*
X21329705Y-10094936D01*
X21329705Y-10094936D02*
X21329705Y-10113984D01*
X21329705Y-9990174D02*
X21339229Y-9999698D01*
X21339229Y-9999698D02*
X21329705Y-10009222D01*
X21329705Y-10009222D02*
X21320182Y-9999698D01*
X21320182Y-9999698D02*
X21329705Y-9990174D01*
X21329705Y-9990174D02*
X21329705Y-10009222D01*
D12*
X19657500Y-10422500D02*
X19697500Y-10462500D01*
X19697500Y-10422500D02*
X19657500Y-10462500D01*
D11*
X19996372Y-10333984D02*
X20015420Y-10333984D01*
X20015420Y-10333984D02*
X20034467Y-10343508D01*
X20034467Y-10343508D02*
X20043991Y-10353031D01*
X20043991Y-10353031D02*
X20053515Y-10372079D01*
X20053515Y-10372079D02*
X20063039Y-10410174D01*
X20063039Y-10410174D02*
X20063039Y-10457793D01*
X20063039Y-10457793D02*
X20053515Y-10495889D01*
X20053515Y-10495889D02*
X20043991Y-10514936D01*
X20043991Y-10514936D02*
X20034467Y-10524460D01*
X20034467Y-10524460D02*
X20015420Y-10533984D01*
X20015420Y-10533984D02*
X19996372Y-10533984D01*
X19996372Y-10533984D02*
X19977324Y-10524460D01*
X19977324Y-10524460D02*
X19967801Y-10514936D01*
X19967801Y-10514936D02*
X19958277Y-10495889D01*
X19958277Y-10495889D02*
X19948753Y-10457793D01*
X19948753Y-10457793D02*
X19948753Y-10410174D01*
X19948753Y-10410174D02*
X19958277Y-10372079D01*
X19958277Y-10372079D02*
X19967801Y-10353031D01*
X19967801Y-10353031D02*
X19977324Y-10343508D01*
X19977324Y-10343508D02*
X19996372Y-10333984D01*
X20148753Y-10514936D02*
X20158277Y-10524460D01*
X20158277Y-10524460D02*
X20148753Y-10533984D01*
X20148753Y-10533984D02*
X20139229Y-10524460D01*
X20139229Y-10524460D02*
X20148753Y-10514936D01*
X20148753Y-10514936D02*
X20148753Y-10533984D01*
X20329705Y-10400650D02*
X20329705Y-10533984D01*
X20282086Y-10324460D02*
X20234467Y-10467317D01*
X20234467Y-10467317D02*
X20358277Y-10467317D01*
X20472563Y-10333984D02*
X20491610Y-10333984D01*
X20491610Y-10333984D02*
X20510658Y-10343508D01*
X20510658Y-10343508D02*
X20520182Y-10353031D01*
X20520182Y-10353031D02*
X20529705Y-10372079D01*
X20529705Y-10372079D02*
X20539229Y-10410174D01*
X20539229Y-10410174D02*
X20539229Y-10457793D01*
X20539229Y-10457793D02*
X20529705Y-10495889D01*
X20529705Y-10495889D02*
X20520182Y-10514936D01*
X20520182Y-10514936D02*
X20510658Y-10524460D01*
X20510658Y-10524460D02*
X20491610Y-10533984D01*
X20491610Y-10533984D02*
X20472563Y-10533984D01*
X20472563Y-10533984D02*
X20453515Y-10524460D01*
X20453515Y-10524460D02*
X20443991Y-10514936D01*
X20443991Y-10514936D02*
X20434467Y-10495889D01*
X20434467Y-10495889D02*
X20424944Y-10457793D01*
X20424944Y-10457793D02*
X20424944Y-10410174D01*
X20424944Y-10410174D02*
X20434467Y-10372079D01*
X20434467Y-10372079D02*
X20443991Y-10353031D01*
X20443991Y-10353031D02*
X20453515Y-10343508D01*
X20453515Y-10343508D02*
X20472563Y-10333984D01*
X20663039Y-10333984D02*
X20682086Y-10333984D01*
X20682086Y-10333984D02*
X20701134Y-10343508D01*
X20701134Y-10343508D02*
X20710658Y-10353031D01*
X20710658Y-10353031D02*
X20720182Y-10372079D01*
X20720182Y-10372079D02*
X20729705Y-10410174D01*
X20729705Y-10410174D02*
X20729705Y-10457793D01*
X20729705Y-10457793D02*
X20720182Y-10495889D01*
X20720182Y-10495889D02*
X20710658Y-10514936D01*
X20710658Y-10514936D02*
X20701134Y-10524460D01*
X20701134Y-10524460D02*
X20682086Y-10533984D01*
X20682086Y-10533984D02*
X20663039Y-10533984D01*
X20663039Y-10533984D02*
X20643991Y-10524460D01*
X20643991Y-10524460D02*
X20634467Y-10514936D01*
X20634467Y-10514936D02*
X20624944Y-10495889D01*
X20624944Y-10495889D02*
X20615420Y-10457793D01*
X20615420Y-10457793D02*
X20615420Y-10410174D01*
X20615420Y-10410174D02*
X20624944Y-10372079D01*
X20624944Y-10372079D02*
X20634467Y-10353031D01*
X20634467Y-10353031D02*
X20643991Y-10343508D01*
X20643991Y-10343508D02*
X20663039Y-10333984D01*
X20815420Y-10533984D02*
X20815420Y-10400650D01*
X20815420Y-10419698D02*
X20824944Y-10410174D01*
X20824944Y-10410174D02*
X20843991Y-10400650D01*
X20843991Y-10400650D02*
X20872563Y-10400650D01*
X20872563Y-10400650D02*
X20891610Y-10410174D01*
X20891610Y-10410174D02*
X20901134Y-10429222D01*
X20901134Y-10429222D02*
X20901134Y-10533984D01*
X20901134Y-10429222D02*
X20910658Y-10410174D01*
X20910658Y-10410174D02*
X20929705Y-10400650D01*
X20929705Y-10400650D02*
X20958277Y-10400650D01*
X20958277Y-10400650D02*
X20977325Y-10410174D01*
X20977325Y-10410174D02*
X20986848Y-10429222D01*
X20986848Y-10429222D02*
X20986848Y-10533984D01*
X21082086Y-10533984D02*
X21082086Y-10400650D01*
X21082086Y-10419698D02*
X21091610Y-10410174D01*
X21091610Y-10410174D02*
X21110658Y-10400650D01*
X21110658Y-10400650D02*
X21139229Y-10400650D01*
X21139229Y-10400650D02*
X21158277Y-10410174D01*
X21158277Y-10410174D02*
X21167801Y-10429222D01*
X21167801Y-10429222D02*
X21167801Y-10533984D01*
X21167801Y-10429222D02*
X21177325Y-10410174D01*
X21177325Y-10410174D02*
X21196372Y-10400650D01*
X21196372Y-10400650D02*
X21224944Y-10400650D01*
X21224944Y-10400650D02*
X21243991Y-10410174D01*
X21243991Y-10410174D02*
X21253515Y-10429222D01*
X21253515Y-10429222D02*
X21253515Y-10533984D01*
X21643991Y-10324460D02*
X21472563Y-10581603D01*
X21901134Y-10333984D02*
X21920182Y-10333984D01*
X21920182Y-10333984D02*
X21939229Y-10343508D01*
X21939229Y-10343508D02*
X21948753Y-10353031D01*
X21948753Y-10353031D02*
X21958277Y-10372079D01*
X21958277Y-10372079D02*
X21967801Y-10410174D01*
X21967801Y-10410174D02*
X21967801Y-10457793D01*
X21967801Y-10457793D02*
X21958277Y-10495889D01*
X21958277Y-10495889D02*
X21948753Y-10514936D01*
X21948753Y-10514936D02*
X21939229Y-10524460D01*
X21939229Y-10524460D02*
X21920182Y-10533984D01*
X21920182Y-10533984D02*
X21901134Y-10533984D01*
X21901134Y-10533984D02*
X21882087Y-10524460D01*
X21882087Y-10524460D02*
X21872563Y-10514936D01*
X21872563Y-10514936D02*
X21863039Y-10495889D01*
X21863039Y-10495889D02*
X21853515Y-10457793D01*
X21853515Y-10457793D02*
X21853515Y-10410174D01*
X21853515Y-10410174D02*
X21863039Y-10372079D01*
X21863039Y-10372079D02*
X21872563Y-10353031D01*
X21872563Y-10353031D02*
X21882087Y-10343508D01*
X21882087Y-10343508D02*
X21901134Y-10333984D01*
X22053515Y-10514936D02*
X22063039Y-10524460D01*
X22063039Y-10524460D02*
X22053515Y-10533984D01*
X22053515Y-10533984D02*
X22043991Y-10524460D01*
X22043991Y-10524460D02*
X22053515Y-10514936D01*
X22053515Y-10514936D02*
X22053515Y-10533984D01*
X22186848Y-10333984D02*
X22205896Y-10333984D01*
X22205896Y-10333984D02*
X22224944Y-10343508D01*
X22224944Y-10343508D02*
X22234468Y-10353031D01*
X22234468Y-10353031D02*
X22243991Y-10372079D01*
X22243991Y-10372079D02*
X22253515Y-10410174D01*
X22253515Y-10410174D02*
X22253515Y-10457793D01*
X22253515Y-10457793D02*
X22243991Y-10495889D01*
X22243991Y-10495889D02*
X22234468Y-10514936D01*
X22234468Y-10514936D02*
X22224944Y-10524460D01*
X22224944Y-10524460D02*
X22205896Y-10533984D01*
X22205896Y-10533984D02*
X22186848Y-10533984D01*
X22186848Y-10533984D02*
X22167801Y-10524460D01*
X22167801Y-10524460D02*
X22158277Y-10514936D01*
X22158277Y-10514936D02*
X22148753Y-10495889D01*
X22148753Y-10495889D02*
X22139229Y-10457793D01*
X22139229Y-10457793D02*
X22139229Y-10410174D01*
X22139229Y-10410174D02*
X22148753Y-10372079D01*
X22148753Y-10372079D02*
X22158277Y-10353031D01*
X22158277Y-10353031D02*
X22167801Y-10343508D01*
X22167801Y-10343508D02*
X22186848Y-10333984D01*
X22443991Y-10533984D02*
X22329706Y-10533984D01*
X22386848Y-10533984D02*
X22386848Y-10333984D01*
X22386848Y-10333984D02*
X22367801Y-10362555D01*
X22367801Y-10362555D02*
X22348753Y-10381603D01*
X22348753Y-10381603D02*
X22329706Y-10391127D01*
X22624944Y-10333984D02*
X22529706Y-10333984D01*
X22529706Y-10333984D02*
X22520182Y-10429222D01*
X22520182Y-10429222D02*
X22529706Y-10419698D01*
X22529706Y-10419698D02*
X22548753Y-10410174D01*
X22548753Y-10410174D02*
X22596372Y-10410174D01*
X22596372Y-10410174D02*
X22615420Y-10419698D01*
X22615420Y-10419698D02*
X22624944Y-10429222D01*
X22624944Y-10429222D02*
X22634467Y-10448270D01*
X22634467Y-10448270D02*
X22634467Y-10495889D01*
X22634467Y-10495889D02*
X22624944Y-10514936D01*
X22624944Y-10514936D02*
X22615420Y-10524460D01*
X22615420Y-10524460D02*
X22596372Y-10533984D01*
X22596372Y-10533984D02*
X22548753Y-10533984D01*
X22548753Y-10533984D02*
X22529706Y-10524460D01*
X22529706Y-10524460D02*
X22520182Y-10514936D01*
X22701134Y-10333984D02*
X22834467Y-10333984D01*
X22834467Y-10333984D02*
X22748753Y-10533984D01*
X22901134Y-10333984D02*
X22901134Y-10372079D01*
X22977325Y-10333984D02*
X22977325Y-10372079D01*
X23272563Y-10610174D02*
X23263039Y-10600650D01*
X23263039Y-10600650D02*
X23243991Y-10572079D01*
X23243991Y-10572079D02*
X23234468Y-10553031D01*
X23234468Y-10553031D02*
X23224944Y-10524460D01*
X23224944Y-10524460D02*
X23215420Y-10476841D01*
X23215420Y-10476841D02*
X23215420Y-10438746D01*
X23215420Y-10438746D02*
X23224944Y-10391127D01*
X23224944Y-10391127D02*
X23234468Y-10362555D01*
X23234468Y-10362555D02*
X23243991Y-10343508D01*
X23243991Y-10343508D02*
X23263039Y-10314936D01*
X23263039Y-10314936D02*
X23272563Y-10305412D01*
X23339229Y-10353031D02*
X23348753Y-10343508D01*
X23348753Y-10343508D02*
X23367801Y-10333984D01*
X23367801Y-10333984D02*
X23415420Y-10333984D01*
X23415420Y-10333984D02*
X23434468Y-10343508D01*
X23434468Y-10343508D02*
X23443991Y-10353031D01*
X23443991Y-10353031D02*
X23453515Y-10372079D01*
X23453515Y-10372079D02*
X23453515Y-10391127D01*
X23453515Y-10391127D02*
X23443991Y-10419698D01*
X23443991Y-10419698D02*
X23329706Y-10533984D01*
X23329706Y-10533984D02*
X23453515Y-10533984D01*
X23624944Y-10400650D02*
X23624944Y-10533984D01*
X23577325Y-10324460D02*
X23529706Y-10467317D01*
X23529706Y-10467317D02*
X23653515Y-10467317D01*
X23882087Y-10533984D02*
X23882087Y-10333984D01*
X23967801Y-10533984D02*
X23967801Y-10429222D01*
X23967801Y-10429222D02*
X23958277Y-10410174D01*
X23958277Y-10410174D02*
X23939230Y-10400650D01*
X23939230Y-10400650D02*
X23910658Y-10400650D01*
X23910658Y-10400650D02*
X23891610Y-10410174D01*
X23891610Y-10410174D02*
X23882087Y-10419698D01*
X24091610Y-10533984D02*
X24072563Y-10524460D01*
X24072563Y-10524460D02*
X24063039Y-10514936D01*
X24063039Y-10514936D02*
X24053515Y-10495889D01*
X24053515Y-10495889D02*
X24053515Y-10438746D01*
X24053515Y-10438746D02*
X24063039Y-10419698D01*
X24063039Y-10419698D02*
X24072563Y-10410174D01*
X24072563Y-10410174D02*
X24091610Y-10400650D01*
X24091610Y-10400650D02*
X24120182Y-10400650D01*
X24120182Y-10400650D02*
X24139230Y-10410174D01*
X24139230Y-10410174D02*
X24148753Y-10419698D01*
X24148753Y-10419698D02*
X24158277Y-10438746D01*
X24158277Y-10438746D02*
X24158277Y-10495889D01*
X24158277Y-10495889D02*
X24148753Y-10514936D01*
X24148753Y-10514936D02*
X24139230Y-10524460D01*
X24139230Y-10524460D02*
X24120182Y-10533984D01*
X24120182Y-10533984D02*
X24091610Y-10533984D01*
X24272563Y-10533984D02*
X24253515Y-10524460D01*
X24253515Y-10524460D02*
X24243991Y-10505412D01*
X24243991Y-10505412D02*
X24243991Y-10333984D01*
X24424944Y-10524460D02*
X24405896Y-10533984D01*
X24405896Y-10533984D02*
X24367801Y-10533984D01*
X24367801Y-10533984D02*
X24348753Y-10524460D01*
X24348753Y-10524460D02*
X24339230Y-10505412D01*
X24339230Y-10505412D02*
X24339230Y-10429222D01*
X24339230Y-10429222D02*
X24348753Y-10410174D01*
X24348753Y-10410174D02*
X24367801Y-10400650D01*
X24367801Y-10400650D02*
X24405896Y-10400650D01*
X24405896Y-10400650D02*
X24424944Y-10410174D01*
X24424944Y-10410174D02*
X24434468Y-10429222D01*
X24434468Y-10429222D02*
X24434468Y-10448270D01*
X24434468Y-10448270D02*
X24339230Y-10467317D01*
X24510658Y-10524460D02*
X24529706Y-10533984D01*
X24529706Y-10533984D02*
X24567801Y-10533984D01*
X24567801Y-10533984D02*
X24586849Y-10524460D01*
X24586849Y-10524460D02*
X24596372Y-10505412D01*
X24596372Y-10505412D02*
X24596372Y-10495889D01*
X24596372Y-10495889D02*
X24586849Y-10476841D01*
X24586849Y-10476841D02*
X24567801Y-10467317D01*
X24567801Y-10467317D02*
X24539230Y-10467317D01*
X24539230Y-10467317D02*
X24520182Y-10457793D01*
X24520182Y-10457793D02*
X24510658Y-10438746D01*
X24510658Y-10438746D02*
X24510658Y-10429222D01*
X24510658Y-10429222D02*
X24520182Y-10410174D01*
X24520182Y-10410174D02*
X24539230Y-10400650D01*
X24539230Y-10400650D02*
X24567801Y-10400650D01*
X24567801Y-10400650D02*
X24586849Y-10410174D01*
X24663039Y-10610174D02*
X24672563Y-10600650D01*
X24672563Y-10600650D02*
X24691611Y-10572079D01*
X24691611Y-10572079D02*
X24701134Y-10553031D01*
X24701134Y-10553031D02*
X24710658Y-10524460D01*
X24710658Y-10524460D02*
X24720182Y-10476841D01*
X24720182Y-10476841D02*
X24720182Y-10438746D01*
X24720182Y-10438746D02*
X24710658Y-10391127D01*
X24710658Y-10391127D02*
X24701134Y-10362555D01*
X24701134Y-10362555D02*
X24691611Y-10343508D01*
X24691611Y-10343508D02*
X24672563Y-10314936D01*
X24672563Y-10314936D02*
X24663039Y-10305412D01*
X19697500Y-10706500D02*
G75*
G02*
X19497500Y-10706500I-100000J0D01*
G01*
X19497500Y-10706500D02*
G75*
G02*
X19697500Y-10706500I100000J0D01*
G01*
X19948753Y-10617031D02*
X19958277Y-10607508D01*
X19958277Y-10607508D02*
X19977324Y-10597984D01*
X19977324Y-10597984D02*
X20024944Y-10597984D01*
X20024944Y-10597984D02*
X20043991Y-10607508D01*
X20043991Y-10607508D02*
X20053515Y-10617031D01*
X20053515Y-10617031D02*
X20063039Y-10636079D01*
X20063039Y-10636079D02*
X20063039Y-10655127D01*
X20063039Y-10655127D02*
X20053515Y-10683698D01*
X20053515Y-10683698D02*
X19939229Y-10797984D01*
X19939229Y-10797984D02*
X20063039Y-10797984D01*
X20148753Y-10778936D02*
X20158277Y-10788460D01*
X20158277Y-10788460D02*
X20148753Y-10797984D01*
X20148753Y-10797984D02*
X20139229Y-10788460D01*
X20139229Y-10788460D02*
X20148753Y-10778936D01*
X20148753Y-10778936D02*
X20148753Y-10797984D01*
X20234467Y-10617031D02*
X20243991Y-10607508D01*
X20243991Y-10607508D02*
X20263039Y-10597984D01*
X20263039Y-10597984D02*
X20310658Y-10597984D01*
X20310658Y-10597984D02*
X20329705Y-10607508D01*
X20329705Y-10607508D02*
X20339229Y-10617031D01*
X20339229Y-10617031D02*
X20348753Y-10636079D01*
X20348753Y-10636079D02*
X20348753Y-10655127D01*
X20348753Y-10655127D02*
X20339229Y-10683698D01*
X20339229Y-10683698D02*
X20224944Y-10797984D01*
X20224944Y-10797984D02*
X20348753Y-10797984D01*
X20472563Y-10597984D02*
X20491610Y-10597984D01*
X20491610Y-10597984D02*
X20510658Y-10607508D01*
X20510658Y-10607508D02*
X20520182Y-10617031D01*
X20520182Y-10617031D02*
X20529705Y-10636079D01*
X20529705Y-10636079D02*
X20539229Y-10674174D01*
X20539229Y-10674174D02*
X20539229Y-10721793D01*
X20539229Y-10721793D02*
X20529705Y-10759889D01*
X20529705Y-10759889D02*
X20520182Y-10778936D01*
X20520182Y-10778936D02*
X20510658Y-10788460D01*
X20510658Y-10788460D02*
X20491610Y-10797984D01*
X20491610Y-10797984D02*
X20472563Y-10797984D01*
X20472563Y-10797984D02*
X20453515Y-10788460D01*
X20453515Y-10788460D02*
X20443991Y-10778936D01*
X20443991Y-10778936D02*
X20434467Y-10759889D01*
X20434467Y-10759889D02*
X20424944Y-10721793D01*
X20424944Y-10721793D02*
X20424944Y-10674174D01*
X20424944Y-10674174D02*
X20434467Y-10636079D01*
X20434467Y-10636079D02*
X20443991Y-10617031D01*
X20443991Y-10617031D02*
X20453515Y-10607508D01*
X20453515Y-10607508D02*
X20472563Y-10597984D01*
X20663039Y-10597984D02*
X20682086Y-10597984D01*
X20682086Y-10597984D02*
X20701134Y-10607508D01*
X20701134Y-10607508D02*
X20710658Y-10617031D01*
X20710658Y-10617031D02*
X20720182Y-10636079D01*
X20720182Y-10636079D02*
X20729705Y-10674174D01*
X20729705Y-10674174D02*
X20729705Y-10721793D01*
X20729705Y-10721793D02*
X20720182Y-10759889D01*
X20720182Y-10759889D02*
X20710658Y-10778936D01*
X20710658Y-10778936D02*
X20701134Y-10788460D01*
X20701134Y-10788460D02*
X20682086Y-10797984D01*
X20682086Y-10797984D02*
X20663039Y-10797984D01*
X20663039Y-10797984D02*
X20643991Y-10788460D01*
X20643991Y-10788460D02*
X20634467Y-10778936D01*
X20634467Y-10778936D02*
X20624944Y-10759889D01*
X20624944Y-10759889D02*
X20615420Y-10721793D01*
X20615420Y-10721793D02*
X20615420Y-10674174D01*
X20615420Y-10674174D02*
X20624944Y-10636079D01*
X20624944Y-10636079D02*
X20634467Y-10617031D01*
X20634467Y-10617031D02*
X20643991Y-10607508D01*
X20643991Y-10607508D02*
X20663039Y-10597984D01*
X20815420Y-10797984D02*
X20815420Y-10664650D01*
X20815420Y-10683698D02*
X20824944Y-10674174D01*
X20824944Y-10674174D02*
X20843991Y-10664650D01*
X20843991Y-10664650D02*
X20872563Y-10664650D01*
X20872563Y-10664650D02*
X20891610Y-10674174D01*
X20891610Y-10674174D02*
X20901134Y-10693222D01*
X20901134Y-10693222D02*
X20901134Y-10797984D01*
X20901134Y-10693222D02*
X20910658Y-10674174D01*
X20910658Y-10674174D02*
X20929705Y-10664650D01*
X20929705Y-10664650D02*
X20958277Y-10664650D01*
X20958277Y-10664650D02*
X20977325Y-10674174D01*
X20977325Y-10674174D02*
X20986848Y-10693222D01*
X20986848Y-10693222D02*
X20986848Y-10797984D01*
X21082086Y-10797984D02*
X21082086Y-10664650D01*
X21082086Y-10683698D02*
X21091610Y-10674174D01*
X21091610Y-10674174D02*
X21110658Y-10664650D01*
X21110658Y-10664650D02*
X21139229Y-10664650D01*
X21139229Y-10664650D02*
X21158277Y-10674174D01*
X21158277Y-10674174D02*
X21167801Y-10693222D01*
X21167801Y-10693222D02*
X21167801Y-10797984D01*
X21167801Y-10693222D02*
X21177325Y-10674174D01*
X21177325Y-10674174D02*
X21196372Y-10664650D01*
X21196372Y-10664650D02*
X21224944Y-10664650D01*
X21224944Y-10664650D02*
X21243991Y-10674174D01*
X21243991Y-10674174D02*
X21253515Y-10693222D01*
X21253515Y-10693222D02*
X21253515Y-10797984D01*
X21643991Y-10588460D02*
X21472563Y-10845603D01*
X21901134Y-10597984D02*
X21920182Y-10597984D01*
X21920182Y-10597984D02*
X21939229Y-10607508D01*
X21939229Y-10607508D02*
X21948753Y-10617031D01*
X21948753Y-10617031D02*
X21958277Y-10636079D01*
X21958277Y-10636079D02*
X21967801Y-10674174D01*
X21967801Y-10674174D02*
X21967801Y-10721793D01*
X21967801Y-10721793D02*
X21958277Y-10759889D01*
X21958277Y-10759889D02*
X21948753Y-10778936D01*
X21948753Y-10778936D02*
X21939229Y-10788460D01*
X21939229Y-10788460D02*
X21920182Y-10797984D01*
X21920182Y-10797984D02*
X21901134Y-10797984D01*
X21901134Y-10797984D02*
X21882087Y-10788460D01*
X21882087Y-10788460D02*
X21872563Y-10778936D01*
X21872563Y-10778936D02*
X21863039Y-10759889D01*
X21863039Y-10759889D02*
X21853515Y-10721793D01*
X21853515Y-10721793D02*
X21853515Y-10674174D01*
X21853515Y-10674174D02*
X21863039Y-10636079D01*
X21863039Y-10636079D02*
X21872563Y-10617031D01*
X21872563Y-10617031D02*
X21882087Y-10607508D01*
X21882087Y-10607508D02*
X21901134Y-10597984D01*
X22053515Y-10778936D02*
X22063039Y-10788460D01*
X22063039Y-10788460D02*
X22053515Y-10797984D01*
X22053515Y-10797984D02*
X22043991Y-10788460D01*
X22043991Y-10788460D02*
X22053515Y-10778936D01*
X22053515Y-10778936D02*
X22053515Y-10797984D01*
X22186848Y-10597984D02*
X22205896Y-10597984D01*
X22205896Y-10597984D02*
X22224944Y-10607508D01*
X22224944Y-10607508D02*
X22234468Y-10617031D01*
X22234468Y-10617031D02*
X22243991Y-10636079D01*
X22243991Y-10636079D02*
X22253515Y-10674174D01*
X22253515Y-10674174D02*
X22253515Y-10721793D01*
X22253515Y-10721793D02*
X22243991Y-10759889D01*
X22243991Y-10759889D02*
X22234468Y-10778936D01*
X22234468Y-10778936D02*
X22224944Y-10788460D01*
X22224944Y-10788460D02*
X22205896Y-10797984D01*
X22205896Y-10797984D02*
X22186848Y-10797984D01*
X22186848Y-10797984D02*
X22167801Y-10788460D01*
X22167801Y-10788460D02*
X22158277Y-10778936D01*
X22158277Y-10778936D02*
X22148753Y-10759889D01*
X22148753Y-10759889D02*
X22139229Y-10721793D01*
X22139229Y-10721793D02*
X22139229Y-10674174D01*
X22139229Y-10674174D02*
X22148753Y-10636079D01*
X22148753Y-10636079D02*
X22158277Y-10617031D01*
X22158277Y-10617031D02*
X22167801Y-10607508D01*
X22167801Y-10607508D02*
X22186848Y-10597984D01*
X22367801Y-10683698D02*
X22348753Y-10674174D01*
X22348753Y-10674174D02*
X22339229Y-10664650D01*
X22339229Y-10664650D02*
X22329706Y-10645603D01*
X22329706Y-10645603D02*
X22329706Y-10636079D01*
X22329706Y-10636079D02*
X22339229Y-10617031D01*
X22339229Y-10617031D02*
X22348753Y-10607508D01*
X22348753Y-10607508D02*
X22367801Y-10597984D01*
X22367801Y-10597984D02*
X22405896Y-10597984D01*
X22405896Y-10597984D02*
X22424944Y-10607508D01*
X22424944Y-10607508D02*
X22434467Y-10617031D01*
X22434467Y-10617031D02*
X22443991Y-10636079D01*
X22443991Y-10636079D02*
X22443991Y-10645603D01*
X22443991Y-10645603D02*
X22434467Y-10664650D01*
X22434467Y-10664650D02*
X22424944Y-10674174D01*
X22424944Y-10674174D02*
X22405896Y-10683698D01*
X22405896Y-10683698D02*
X22367801Y-10683698D01*
X22367801Y-10683698D02*
X22348753Y-10693222D01*
X22348753Y-10693222D02*
X22339229Y-10702746D01*
X22339229Y-10702746D02*
X22329706Y-10721793D01*
X22329706Y-10721793D02*
X22329706Y-10759889D01*
X22329706Y-10759889D02*
X22339229Y-10778936D01*
X22339229Y-10778936D02*
X22348753Y-10788460D01*
X22348753Y-10788460D02*
X22367801Y-10797984D01*
X22367801Y-10797984D02*
X22405896Y-10797984D01*
X22405896Y-10797984D02*
X22424944Y-10788460D01*
X22424944Y-10788460D02*
X22434467Y-10778936D01*
X22434467Y-10778936D02*
X22443991Y-10759889D01*
X22443991Y-10759889D02*
X22443991Y-10721793D01*
X22443991Y-10721793D02*
X22434467Y-10702746D01*
X22434467Y-10702746D02*
X22424944Y-10693222D01*
X22424944Y-10693222D02*
X22405896Y-10683698D01*
X22615420Y-10597984D02*
X22577325Y-10597984D01*
X22577325Y-10597984D02*
X22558277Y-10607508D01*
X22558277Y-10607508D02*
X22548753Y-10617031D01*
X22548753Y-10617031D02*
X22529706Y-10645603D01*
X22529706Y-10645603D02*
X22520182Y-10683698D01*
X22520182Y-10683698D02*
X22520182Y-10759889D01*
X22520182Y-10759889D02*
X22529706Y-10778936D01*
X22529706Y-10778936D02*
X22539229Y-10788460D01*
X22539229Y-10788460D02*
X22558277Y-10797984D01*
X22558277Y-10797984D02*
X22596372Y-10797984D01*
X22596372Y-10797984D02*
X22615420Y-10788460D01*
X22615420Y-10788460D02*
X22624944Y-10778936D01*
X22624944Y-10778936D02*
X22634467Y-10759889D01*
X22634467Y-10759889D02*
X22634467Y-10712270D01*
X22634467Y-10712270D02*
X22624944Y-10693222D01*
X22624944Y-10693222D02*
X22615420Y-10683698D01*
X22615420Y-10683698D02*
X22596372Y-10674174D01*
X22596372Y-10674174D02*
X22558277Y-10674174D01*
X22558277Y-10674174D02*
X22539229Y-10683698D01*
X22539229Y-10683698D02*
X22529706Y-10693222D01*
X22529706Y-10693222D02*
X22520182Y-10712270D01*
X22805896Y-10597984D02*
X22767801Y-10597984D01*
X22767801Y-10597984D02*
X22748753Y-10607508D01*
X22748753Y-10607508D02*
X22739229Y-10617031D01*
X22739229Y-10617031D02*
X22720182Y-10645603D01*
X22720182Y-10645603D02*
X22710658Y-10683698D01*
X22710658Y-10683698D02*
X22710658Y-10759889D01*
X22710658Y-10759889D02*
X22720182Y-10778936D01*
X22720182Y-10778936D02*
X22729706Y-10788460D01*
X22729706Y-10788460D02*
X22748753Y-10797984D01*
X22748753Y-10797984D02*
X22786848Y-10797984D01*
X22786848Y-10797984D02*
X22805896Y-10788460D01*
X22805896Y-10788460D02*
X22815420Y-10778936D01*
X22815420Y-10778936D02*
X22824944Y-10759889D01*
X22824944Y-10759889D02*
X22824944Y-10712270D01*
X22824944Y-10712270D02*
X22815420Y-10693222D01*
X22815420Y-10693222D02*
X22805896Y-10683698D01*
X22805896Y-10683698D02*
X22786848Y-10674174D01*
X22786848Y-10674174D02*
X22748753Y-10674174D01*
X22748753Y-10674174D02*
X22729706Y-10683698D01*
X22729706Y-10683698D02*
X22720182Y-10693222D01*
X22720182Y-10693222D02*
X22710658Y-10712270D01*
X22901134Y-10597984D02*
X22901134Y-10636079D01*
X22977325Y-10597984D02*
X22977325Y-10636079D01*
X23272563Y-10874174D02*
X23263039Y-10864650D01*
X23263039Y-10864650D02*
X23243991Y-10836079D01*
X23243991Y-10836079D02*
X23234468Y-10817031D01*
X23234468Y-10817031D02*
X23224944Y-10788460D01*
X23224944Y-10788460D02*
X23215420Y-10740841D01*
X23215420Y-10740841D02*
X23215420Y-10702746D01*
X23215420Y-10702746D02*
X23224944Y-10655127D01*
X23224944Y-10655127D02*
X23234468Y-10626555D01*
X23234468Y-10626555D02*
X23243991Y-10607508D01*
X23243991Y-10607508D02*
X23263039Y-10578936D01*
X23263039Y-10578936D02*
X23272563Y-10569412D01*
X23434468Y-10664650D02*
X23434468Y-10797984D01*
X23386848Y-10588460D02*
X23339229Y-10731317D01*
X23339229Y-10731317D02*
X23463039Y-10731317D01*
X23691610Y-10797984D02*
X23691610Y-10597984D01*
X23777325Y-10797984D02*
X23777325Y-10693222D01*
X23777325Y-10693222D02*
X23767801Y-10674174D01*
X23767801Y-10674174D02*
X23748753Y-10664650D01*
X23748753Y-10664650D02*
X23720182Y-10664650D01*
X23720182Y-10664650D02*
X23701134Y-10674174D01*
X23701134Y-10674174D02*
X23691610Y-10683698D01*
X23901134Y-10797984D02*
X23882087Y-10788460D01*
X23882087Y-10788460D02*
X23872563Y-10778936D01*
X23872563Y-10778936D02*
X23863039Y-10759889D01*
X23863039Y-10759889D02*
X23863039Y-10702746D01*
X23863039Y-10702746D02*
X23872563Y-10683698D01*
X23872563Y-10683698D02*
X23882087Y-10674174D01*
X23882087Y-10674174D02*
X23901134Y-10664650D01*
X23901134Y-10664650D02*
X23929706Y-10664650D01*
X23929706Y-10664650D02*
X23948753Y-10674174D01*
X23948753Y-10674174D02*
X23958277Y-10683698D01*
X23958277Y-10683698D02*
X23967801Y-10702746D01*
X23967801Y-10702746D02*
X23967801Y-10759889D01*
X23967801Y-10759889D02*
X23958277Y-10778936D01*
X23958277Y-10778936D02*
X23948753Y-10788460D01*
X23948753Y-10788460D02*
X23929706Y-10797984D01*
X23929706Y-10797984D02*
X23901134Y-10797984D01*
X24082087Y-10797984D02*
X24063039Y-10788460D01*
X24063039Y-10788460D02*
X24053515Y-10769412D01*
X24053515Y-10769412D02*
X24053515Y-10597984D01*
X24234468Y-10788460D02*
X24215420Y-10797984D01*
X24215420Y-10797984D02*
X24177325Y-10797984D01*
X24177325Y-10797984D02*
X24158277Y-10788460D01*
X24158277Y-10788460D02*
X24148753Y-10769412D01*
X24148753Y-10769412D02*
X24148753Y-10693222D01*
X24148753Y-10693222D02*
X24158277Y-10674174D01*
X24158277Y-10674174D02*
X24177325Y-10664650D01*
X24177325Y-10664650D02*
X24215420Y-10664650D01*
X24215420Y-10664650D02*
X24234468Y-10674174D01*
X24234468Y-10674174D02*
X24243991Y-10693222D01*
X24243991Y-10693222D02*
X24243991Y-10712270D01*
X24243991Y-10712270D02*
X24148753Y-10731317D01*
X24320182Y-10788460D02*
X24339230Y-10797984D01*
X24339230Y-10797984D02*
X24377325Y-10797984D01*
X24377325Y-10797984D02*
X24396372Y-10788460D01*
X24396372Y-10788460D02*
X24405896Y-10769412D01*
X24405896Y-10769412D02*
X24405896Y-10759889D01*
X24405896Y-10759889D02*
X24396372Y-10740841D01*
X24396372Y-10740841D02*
X24377325Y-10731317D01*
X24377325Y-10731317D02*
X24348753Y-10731317D01*
X24348753Y-10731317D02*
X24329706Y-10721793D01*
X24329706Y-10721793D02*
X24320182Y-10702746D01*
X24320182Y-10702746D02*
X24320182Y-10693222D01*
X24320182Y-10693222D02*
X24329706Y-10674174D01*
X24329706Y-10674174D02*
X24348753Y-10664650D01*
X24348753Y-10664650D02*
X24377325Y-10664650D01*
X24377325Y-10664650D02*
X24396372Y-10674174D01*
X24472563Y-10874174D02*
X24482087Y-10864650D01*
X24482087Y-10864650D02*
X24501134Y-10836079D01*
X24501134Y-10836079D02*
X24510658Y-10817031D01*
X24510658Y-10817031D02*
X24520182Y-10788460D01*
X24520182Y-10788460D02*
X24529706Y-10740841D01*
X24529706Y-10740841D02*
X24529706Y-10702746D01*
X24529706Y-10702746D02*
X24520182Y-10655127D01*
X24520182Y-10655127D02*
X24510658Y-10626555D01*
X24510658Y-10626555D02*
X24501134Y-10607508D01*
X24501134Y-10607508D02*
X24482087Y-10578936D01*
X24482087Y-10578936D02*
X24472563Y-10569412D01*
M02*
