%TF.GenerationSoftware,KiCad,Pcbnew,8.0.7*%
%TF.CreationDate,2026-01-14T12:01:29-08:00*%
%TF.ProjectId,3V3-500mA,3356332d-3530-4306-9d41-2e6b69636164,rev?*%
%TF.SameCoordinates,Original*%
%TF.FileFunction,Legend,Top*%
%TF.FilePolarity,Positive*%
%FSLAX46Y46*%
G04 Gerber Fmt 4.6, Leading zero omitted, Abs format (unit mm)*
G04 Created by KiCad (PCBNEW 8.0.7) date 2026-01-14 12:01:29*
%MOMM*%
%LPD*%
G01*
G04 APERTURE LIST*
G04 Aperture macros list*
%AMRoundRect*
0 Rectangle with rounded corners*
0 $1 Rounding radius*
0 $2 $3 $4 $5 $6 $7 $8 $9 X,Y pos of 4 corners*
0 Add a 4 corners polygon primitive as box body*
4,1,4,$2,$3,$4,$5,$6,$7,$8,$9,$2,$3,0*
0 Add four circle primitives for the rounded corners*
1,1,$1+$1,$2,$3*
1,1,$1+$1,$4,$5*
1,1,$1+$1,$6,$7*
1,1,$1+$1,$8,$9*
0 Add four rect primitives between the rounded corners*
20,1,$1+$1,$2,$3,$4,$5,0*
20,1,$1+$1,$4,$5,$6,$7,0*
20,1,$1+$1,$6,$7,$8,$9,0*
20,1,$1+$1,$8,$9,$2,$3,0*%
G04 Aperture macros list end*
%ADD10C,0.140000*%
%ADD11C,0.100000*%
%ADD12C,0.120000*%
%ADD13R,3.400000X1.800000*%
%ADD14R,1.800000X3.400000*%
%ADD15C,3.800000*%
%ADD16RoundRect,0.250000X0.475000X-0.250000X0.475000X0.250000X-0.475000X0.250000X-0.475000X-0.250000X0*%
%ADD17RoundRect,0.225000X0.250000X-0.225000X0.250000X0.225000X-0.250000X0.225000X-0.250000X-0.225000X0*%
%ADD18RoundRect,0.375000X0.875000X-0.375000X0.875000X0.375000X-0.875000X0.375000X-0.875000X-0.375000X0*%
%ADD19RoundRect,0.250000X-0.475000X0.250000X-0.475000X-0.250000X0.475000X-0.250000X0.475000X0.250000X0*%
%ADD20RoundRect,0.225000X-0.250000X0.225000X-0.250000X-0.225000X0.250000X-0.225000X0.250000X0.225000X0*%
%ADD21RoundRect,0.150000X0.150000X-0.512500X0.150000X0.512500X-0.150000X0.512500X-0.150000X-0.512500X0*%
%ADD22RoundRect,0.225000X0.225000X0.250000X-0.225000X0.250000X-0.225000X-0.250000X0.225000X-0.250000X0*%
%ADD23RoundRect,0.150000X-0.512500X-0.150000X0.512500X-0.150000X0.512500X0.150000X-0.512500X0.150000X0*%
%ADD24RoundRect,0.200000X0.200000X0.275000X-0.200000X0.275000X-0.200000X-0.275000X0.200000X-0.275000X0*%
%ADD25RoundRect,0.200000X-0.200000X-0.275000X0.200000X-0.275000X0.200000X0.275000X-0.200000X0.275000X0*%
G04 APERTURE END LIST*
D10*
G36*
X209987188Y-92801568D02*
G01*
X210034136Y-92848517D01*
X210058953Y-92898152D01*
X210088333Y-93015669D01*
X210088333Y-93098436D01*
X210058953Y-93215953D01*
X210034136Y-93265588D01*
X209987188Y-93312537D01*
X209913640Y-93337053D01*
X209828333Y-93337053D01*
X209828333Y-92777053D01*
X209913640Y-92777053D01*
X209987188Y-92801568D01*
G37*
G36*
X210306111Y-93554831D02*
G01*
X208143889Y-93554831D01*
X208143889Y-93007053D01*
X208221667Y-93007053D01*
X208221667Y-93107053D01*
X208223340Y-93115464D01*
X208223757Y-93124030D01*
X208257090Y-93257363D01*
X208260364Y-93264294D01*
X208262390Y-93271691D01*
X208295724Y-93338358D01*
X208302601Y-93347219D01*
X208308836Y-93356550D01*
X208375502Y-93423217D01*
X208378417Y-93425165D01*
X208379136Y-93426602D01*
X208388882Y-93432157D01*
X208398212Y-93438392D01*
X208399819Y-93438392D01*
X208402864Y-93440128D01*
X208502864Y-93473461D01*
X208513995Y-93474864D01*
X208525000Y-93477053D01*
X208591667Y-93477053D01*
X208602671Y-93474864D01*
X208613803Y-93473461D01*
X208713803Y-93440128D01*
X208716848Y-93438392D01*
X208718456Y-93438392D01*
X208727788Y-93432155D01*
X208737531Y-93426602D01*
X208738249Y-93425165D01*
X208741165Y-93423217D01*
X208774498Y-93389883D01*
X208789673Y-93367173D01*
X208789672Y-93367168D01*
X208795000Y-93340386D01*
X208795000Y-93107053D01*
X208789672Y-93080265D01*
X208751788Y-93042381D01*
X208725000Y-93037053D01*
X208591667Y-93037053D01*
X208564879Y-93042381D01*
X208526995Y-93080265D01*
X208526995Y-93133841D01*
X208564879Y-93171725D01*
X208591667Y-93177053D01*
X208655000Y-93177053D01*
X208655000Y-93311391D01*
X208653854Y-93312537D01*
X208580307Y-93337053D01*
X208536360Y-93337053D01*
X208462812Y-93312537D01*
X208415864Y-93265588D01*
X208391046Y-93215953D01*
X208361667Y-93098436D01*
X208361667Y-93015670D01*
X208391046Y-92898152D01*
X208415864Y-92848517D01*
X208462812Y-92801568D01*
X208536360Y-92777053D01*
X208608475Y-92777053D01*
X208660363Y-92802996D01*
X208686705Y-92810210D01*
X208737532Y-92793268D01*
X208761492Y-92745348D01*
X208748726Y-92707053D01*
X208955000Y-92707053D01*
X208955000Y-93407053D01*
X208960328Y-93433841D01*
X208998212Y-93471725D01*
X209051788Y-93471725D01*
X209089672Y-93433841D01*
X209095000Y-93407053D01*
X209095000Y-92970642D01*
X209364223Y-93441783D01*
X209382140Y-93462398D01*
X209391414Y-93464927D01*
X209398212Y-93471725D01*
X209416338Y-93471725D01*
X209433828Y-93476495D01*
X209442176Y-93471725D01*
X209451788Y-93471725D01*
X209464604Y-93458908D01*
X209480345Y-93449914D01*
X209482874Y-93440638D01*
X209489672Y-93433841D01*
X209495000Y-93407053D01*
X209495000Y-92707053D01*
X209688333Y-92707053D01*
X209688333Y-93407053D01*
X209693661Y-93433841D01*
X209731545Y-93471725D01*
X209758333Y-93477053D01*
X209925000Y-93477053D01*
X209936004Y-93474864D01*
X209947136Y-93473461D01*
X210047136Y-93440128D01*
X210050181Y-93438392D01*
X210051788Y-93438392D01*
X210061114Y-93432159D01*
X210070864Y-93426602D01*
X210071582Y-93425164D01*
X210074497Y-93423217D01*
X210141164Y-93356551D01*
X210147395Y-93347224D01*
X210154277Y-93338358D01*
X210187610Y-93271690D01*
X210189634Y-93264296D01*
X210192910Y-93257363D01*
X210226243Y-93124031D01*
X210226660Y-93115464D01*
X210228333Y-93107053D01*
X210228333Y-93007053D01*
X210226660Y-92998641D01*
X210226243Y-92990075D01*
X210192910Y-92856743D01*
X210189634Y-92849809D01*
X210187610Y-92842416D01*
X210154277Y-92775748D01*
X210147395Y-92766881D01*
X210141164Y-92757555D01*
X210074497Y-92690889D01*
X210071582Y-92688941D01*
X210070864Y-92687504D01*
X210061114Y-92681946D01*
X210051788Y-92675714D01*
X210050181Y-92675714D01*
X210047136Y-92673978D01*
X209947136Y-92640645D01*
X209936004Y-92639241D01*
X209925000Y-92637053D01*
X209758333Y-92637053D01*
X209731545Y-92642381D01*
X209693661Y-92680265D01*
X209688333Y-92707053D01*
X209495000Y-92707053D01*
X209489672Y-92680265D01*
X209451788Y-92642381D01*
X209398212Y-92642381D01*
X209360328Y-92680265D01*
X209355000Y-92707053D01*
X209355000Y-93143463D01*
X209085777Y-92672323D01*
X209067860Y-92651708D01*
X209058585Y-92649178D01*
X209051788Y-92642381D01*
X209033662Y-92642381D01*
X209016172Y-92637611D01*
X209007825Y-92642381D01*
X208998212Y-92642381D01*
X208985394Y-92655198D01*
X208969655Y-92664193D01*
X208967125Y-92673467D01*
X208960328Y-92680265D01*
X208955000Y-92707053D01*
X208748726Y-92707053D01*
X208744549Y-92694521D01*
X208722972Y-92677776D01*
X208656305Y-92644443D01*
X208652924Y-92643517D01*
X208651788Y-92642381D01*
X208640780Y-92640191D01*
X208629962Y-92637229D01*
X208628438Y-92637736D01*
X208625000Y-92637053D01*
X208525000Y-92637053D01*
X208513995Y-92639241D01*
X208502864Y-92640645D01*
X208402864Y-92673978D01*
X208399819Y-92675714D01*
X208398212Y-92675714D01*
X208388882Y-92681948D01*
X208379136Y-92687504D01*
X208378417Y-92688940D01*
X208375502Y-92690889D01*
X208308836Y-92757556D01*
X208302601Y-92766886D01*
X208295724Y-92775748D01*
X208262390Y-92842415D01*
X208260364Y-92849811D01*
X208257090Y-92856743D01*
X208223757Y-92990076D01*
X208223340Y-92998641D01*
X208221667Y-93007053D01*
X208143889Y-93007053D01*
X208143889Y-92559275D01*
X210306111Y-92559275D01*
X210306111Y-93554831D01*
G37*
G36*
X213114444Y-93554655D02*
G01*
X211385731Y-93554655D01*
X211385731Y-92702091D01*
X211463509Y-92702091D01*
X211466925Y-92729189D01*
X211700259Y-93429189D01*
X211713785Y-93452917D01*
X211718463Y-93455256D01*
X211720803Y-93459935D01*
X211741857Y-93466953D01*
X211761705Y-93476877D01*
X211766667Y-93475223D01*
X211771629Y-93476877D01*
X211791477Y-93466953D01*
X211812531Y-93459935D01*
X211814870Y-93455256D01*
X211819549Y-93452917D01*
X211833075Y-93429189D01*
X212066408Y-92729189D01*
X212069198Y-92707053D01*
X212163333Y-92707053D01*
X212163333Y-93407053D01*
X212168661Y-93433841D01*
X212206545Y-93471725D01*
X212260121Y-93471725D01*
X212298005Y-93433841D01*
X212303333Y-93407053D01*
X212303333Y-92707053D01*
X212496666Y-92707053D01*
X212496666Y-93407053D01*
X212501994Y-93433841D01*
X212539878Y-93471725D01*
X212593454Y-93471725D01*
X212631338Y-93433841D01*
X212636666Y-93407053D01*
X212636666Y-92970642D01*
X212905889Y-93441783D01*
X212923806Y-93462398D01*
X212933080Y-93464927D01*
X212939878Y-93471725D01*
X212958004Y-93471725D01*
X212975494Y-93476495D01*
X212983842Y-93471725D01*
X212993454Y-93471725D01*
X213006270Y-93458908D01*
X213022011Y-93449914D01*
X213024540Y-93440638D01*
X213031338Y-93433841D01*
X213036666Y-93407053D01*
X213036666Y-92707053D01*
X213031338Y-92680265D01*
X212993454Y-92642381D01*
X212939878Y-92642381D01*
X212901994Y-92680265D01*
X212896666Y-92707053D01*
X212896666Y-93143463D01*
X212627443Y-92672323D01*
X212609526Y-92651708D01*
X212600251Y-92649178D01*
X212593454Y-92642381D01*
X212575328Y-92642381D01*
X212557838Y-92637611D01*
X212549491Y-92642381D01*
X212539878Y-92642381D01*
X212527060Y-92655198D01*
X212511321Y-92664193D01*
X212508791Y-92673467D01*
X212501994Y-92680265D01*
X212496666Y-92707053D01*
X212303333Y-92707053D01*
X212298005Y-92680265D01*
X212260121Y-92642381D01*
X212206545Y-92642381D01*
X212168661Y-92680265D01*
X212163333Y-92707053D01*
X212069198Y-92707053D01*
X212069824Y-92702090D01*
X212045864Y-92654171D01*
X211995038Y-92637228D01*
X211947118Y-92661188D01*
X211933592Y-92684917D01*
X211766666Y-93185693D01*
X211599741Y-92684917D01*
X211586215Y-92661189D01*
X211538295Y-92637229D01*
X211487469Y-92654171D01*
X211463509Y-92702091D01*
X211385731Y-92702091D01*
X211385731Y-92559450D01*
X213114444Y-92559450D01*
X213114444Y-93554655D01*
G37*
G36*
X214372946Y-91838640D02*
G01*
X214348430Y-91912187D01*
X214301482Y-91959136D01*
X214251848Y-91983953D01*
X214134329Y-92013333D01*
X214051563Y-92013333D01*
X213934045Y-91983953D01*
X213884411Y-91959136D01*
X213837462Y-91912188D01*
X213812946Y-91838639D01*
X213812946Y-91753333D01*
X214372946Y-91753333D01*
X214372946Y-91838640D01*
G37*
G36*
X214590724Y-92231111D02*
G01*
X213595168Y-92231111D01*
X213595168Y-91683333D01*
X213672946Y-91683333D01*
X213672946Y-91850000D01*
X213675134Y-91861004D01*
X213676538Y-91872136D01*
X213709872Y-91972136D01*
X213711608Y-91975181D01*
X213711608Y-91976788D01*
X213717842Y-91986119D01*
X213723398Y-91995864D01*
X213724834Y-91996582D01*
X213726782Y-91999497D01*
X213793448Y-92066164D01*
X213802774Y-92072395D01*
X213811641Y-92079277D01*
X213878309Y-92112610D01*
X213885702Y-92114634D01*
X213892636Y-92117910D01*
X214025968Y-92151243D01*
X214034534Y-92151660D01*
X214042946Y-92153333D01*
X214142946Y-92153333D01*
X214151357Y-92151659D01*
X214159923Y-92151243D01*
X214293257Y-92117910D01*
X214300189Y-92114635D01*
X214307585Y-92112610D01*
X214374251Y-92079277D01*
X214383117Y-92072395D01*
X214392443Y-92066164D01*
X214459110Y-91999498D01*
X214461058Y-91996582D01*
X214462495Y-91995864D01*
X214468050Y-91986117D01*
X214474285Y-91976788D01*
X214474285Y-91975181D01*
X214476021Y-91972136D01*
X214509354Y-91872136D01*
X214510757Y-91861004D01*
X214512946Y-91850000D01*
X214512946Y-91683333D01*
X214507618Y-91656545D01*
X214469734Y-91618661D01*
X214442946Y-91613333D01*
X213742946Y-91613333D01*
X213716158Y-91618661D01*
X213678274Y-91656545D01*
X213672946Y-91683333D01*
X213595168Y-91683333D01*
X213595168Y-91358828D01*
X213673504Y-91358828D01*
X213678274Y-91367175D01*
X213678274Y-91376788D01*
X213691091Y-91389605D01*
X213700086Y-91405345D01*
X213709360Y-91407874D01*
X213716158Y-91414672D01*
X213742946Y-91420000D01*
X214442946Y-91420000D01*
X214469734Y-91414672D01*
X214507618Y-91376788D01*
X214507618Y-91323212D01*
X214469734Y-91285328D01*
X214442946Y-91280000D01*
X214006536Y-91280000D01*
X214477676Y-91010777D01*
X214498291Y-90992860D01*
X214500820Y-90983585D01*
X214507618Y-90976788D01*
X214507618Y-90958661D01*
X214512388Y-90941172D01*
X214507618Y-90932824D01*
X214507618Y-90923212D01*
X214494801Y-90910395D01*
X214485807Y-90894655D01*
X214476531Y-90892125D01*
X214469734Y-90885328D01*
X214442946Y-90880000D01*
X213742946Y-90880000D01*
X213716158Y-90885328D01*
X213678274Y-90923212D01*
X213678274Y-90976788D01*
X213716158Y-91014672D01*
X213742946Y-91020000D01*
X214179356Y-91020000D01*
X213708216Y-91289223D01*
X213687601Y-91307140D01*
X213685071Y-91316414D01*
X213678274Y-91323212D01*
X213678274Y-91341338D01*
X213673504Y-91358828D01*
X213595168Y-91358828D01*
X213595168Y-90450000D01*
X213672946Y-90450000D01*
X213672946Y-90516667D01*
X213675134Y-90527671D01*
X213676538Y-90538803D01*
X213709872Y-90638803D01*
X213711608Y-90641848D01*
X213711608Y-90643455D01*
X213717840Y-90652781D01*
X213723398Y-90662531D01*
X213724835Y-90663249D01*
X213726783Y-90666164D01*
X213760116Y-90699497D01*
X213782825Y-90714672D01*
X213809613Y-90720000D01*
X214042946Y-90720000D01*
X214069734Y-90714672D01*
X214107618Y-90676788D01*
X214112946Y-90650000D01*
X214112946Y-90516667D01*
X214107618Y-90489879D01*
X214069734Y-90451995D01*
X214016158Y-90451995D01*
X213978274Y-90489879D01*
X213972946Y-90516667D01*
X213972946Y-90580000D01*
X213838607Y-90580000D01*
X213837463Y-90578856D01*
X213812946Y-90505306D01*
X213812946Y-90461360D01*
X213837463Y-90387810D01*
X213884410Y-90340863D01*
X213934046Y-90316045D01*
X214051563Y-90286667D01*
X214134329Y-90286667D01*
X214251846Y-90316046D01*
X214301480Y-90340863D01*
X214348430Y-90387812D01*
X214372946Y-90461359D01*
X214372946Y-90533475D01*
X214347003Y-90585362D01*
X214339789Y-90611705D01*
X214356731Y-90662532D01*
X214404651Y-90686491D01*
X214455478Y-90669549D01*
X214472223Y-90647972D01*
X214505556Y-90581304D01*
X214506481Y-90577924D01*
X214507618Y-90576788D01*
X214509807Y-90565779D01*
X214512770Y-90554962D01*
X214512262Y-90553438D01*
X214512946Y-90550000D01*
X214512946Y-90450000D01*
X214510757Y-90438995D01*
X214509354Y-90427864D01*
X214476021Y-90327864D01*
X214474285Y-90324818D01*
X214474285Y-90323212D01*
X214468050Y-90313882D01*
X214462495Y-90304136D01*
X214461058Y-90303417D01*
X214459110Y-90300502D01*
X214392443Y-90233836D01*
X214383112Y-90227601D01*
X214374251Y-90220724D01*
X214307586Y-90187390D01*
X214300187Y-90185364D01*
X214293257Y-90182090D01*
X214159923Y-90148757D01*
X214151357Y-90148340D01*
X214142946Y-90146667D01*
X214042946Y-90146667D01*
X214034534Y-90148339D01*
X214025968Y-90148757D01*
X213892636Y-90182090D01*
X213885705Y-90185364D01*
X213878307Y-90187390D01*
X213811641Y-90220724D01*
X213802779Y-90227601D01*
X213793449Y-90233836D01*
X213726783Y-90300503D01*
X213724835Y-90303417D01*
X213723398Y-90304136D01*
X213717840Y-90313885D01*
X213711608Y-90323212D01*
X213711608Y-90324818D01*
X213709872Y-90327864D01*
X213676538Y-90427864D01*
X213675134Y-90438995D01*
X213672946Y-90450000D01*
X213595168Y-90450000D01*
X213595168Y-90068889D01*
X214590724Y-90068889D01*
X214590724Y-92231111D01*
G37*
G36*
X214590724Y-88831111D02*
G01*
X213595168Y-88831111D01*
X213595168Y-88350000D01*
X213672946Y-88350000D01*
X213672946Y-88550000D01*
X213673629Y-88553438D01*
X213673122Y-88554963D01*
X213676085Y-88565784D01*
X213678274Y-88576788D01*
X213679409Y-88577923D01*
X213680336Y-88581306D01*
X213713670Y-88647971D01*
X213720549Y-88656834D01*
X213726782Y-88666163D01*
X213760115Y-88699497D01*
X213769443Y-88705730D01*
X213778308Y-88712610D01*
X213844976Y-88745943D01*
X213848355Y-88746868D01*
X213849492Y-88748005D01*
X213860500Y-88750194D01*
X213871318Y-88753157D01*
X213872841Y-88752649D01*
X213876280Y-88753333D01*
X214042946Y-88753333D01*
X214046384Y-88752649D01*
X214047908Y-88753157D01*
X214058726Y-88750194D01*
X214069734Y-88748005D01*
X214070870Y-88746868D01*
X214074251Y-88745943D01*
X214140918Y-88712610D01*
X214149782Y-88705730D01*
X214159111Y-88699497D01*
X214192444Y-88666163D01*
X214198674Y-88656838D01*
X214205556Y-88647972D01*
X214233153Y-88592777D01*
X214396850Y-88736013D01*
X214414098Y-88745945D01*
X214416158Y-88748005D01*
X214417675Y-88748005D01*
X214420519Y-88749643D01*
X214445095Y-88748005D01*
X214469734Y-88748005D01*
X214471493Y-88746245D01*
X214473976Y-88746080D01*
X214490195Y-88727544D01*
X214507618Y-88710121D01*
X214508258Y-88706899D01*
X214509256Y-88705760D01*
X214509062Y-88702858D01*
X214512946Y-88683333D01*
X214512946Y-88250000D01*
X214507618Y-88223212D01*
X214469734Y-88185328D01*
X214416158Y-88185328D01*
X214378274Y-88223212D01*
X214372946Y-88250000D01*
X214372946Y-88529069D01*
X214222375Y-88397320D01*
X214205125Y-88387385D01*
X214203068Y-88385328D01*
X214201553Y-88385328D01*
X214198707Y-88383689D01*
X214174123Y-88385328D01*
X214149492Y-88385328D01*
X214147732Y-88387087D01*
X214145249Y-88387253D01*
X214129023Y-88405797D01*
X214111608Y-88423212D01*
X214110967Y-88426431D01*
X214109969Y-88427573D01*
X214110162Y-88430478D01*
X214106280Y-88450000D01*
X214106280Y-88533474D01*
X214085415Y-88575202D01*
X214068146Y-88592470D01*
X214026421Y-88613333D01*
X213892805Y-88613333D01*
X213851078Y-88592470D01*
X213833809Y-88575200D01*
X213812946Y-88533474D01*
X213812946Y-88366525D01*
X213833811Y-88324795D01*
X213859110Y-88299497D01*
X213874285Y-88276788D01*
X213874285Y-88223212D01*
X213836401Y-88185328D01*
X213782825Y-88185328D01*
X213760116Y-88200503D01*
X213726783Y-88233836D01*
X213720551Y-88243161D01*
X213713670Y-88252028D01*
X213680336Y-88318695D01*
X213679410Y-88322075D01*
X213678274Y-88323212D01*
X213676085Y-88334216D01*
X213673122Y-88345037D01*
X213673629Y-88346561D01*
X213672946Y-88350000D01*
X213595168Y-88350000D01*
X213595168Y-87845038D01*
X213673122Y-87845038D01*
X213674776Y-87850000D01*
X213673122Y-87854962D01*
X213683046Y-87874810D01*
X213690064Y-87895864D01*
X213694742Y-87898203D01*
X213697082Y-87902882D01*
X213720810Y-87916408D01*
X214420810Y-88149741D01*
X214447909Y-88153157D01*
X214495828Y-88129197D01*
X214512771Y-88078371D01*
X214488811Y-88030451D01*
X214465082Y-88016925D01*
X213964305Y-87849999D01*
X214465082Y-87683074D01*
X214488810Y-87669548D01*
X214512770Y-87621628D01*
X214495828Y-87570802D01*
X214447908Y-87546842D01*
X214420810Y-87550258D01*
X213720810Y-87783592D01*
X213697082Y-87797118D01*
X213694742Y-87801796D01*
X213690064Y-87804136D01*
X213683046Y-87825190D01*
X213673122Y-87845038D01*
X213595168Y-87845038D01*
X213595168Y-87083333D01*
X213672946Y-87083333D01*
X213672946Y-87283333D01*
X213673629Y-87286771D01*
X213673122Y-87288296D01*
X213676085Y-87299117D01*
X213678274Y-87310121D01*
X213679409Y-87311256D01*
X213680336Y-87314639D01*
X213713670Y-87381304D01*
X213720549Y-87390167D01*
X213726782Y-87399496D01*
X213760115Y-87432830D01*
X213769443Y-87439063D01*
X213778308Y-87445943D01*
X213844976Y-87479276D01*
X213848355Y-87480201D01*
X213849492Y-87481338D01*
X213860500Y-87483527D01*
X213871318Y-87486490D01*
X213872841Y-87485982D01*
X213876280Y-87486666D01*
X214042946Y-87486666D01*
X214046384Y-87485982D01*
X214047908Y-87486490D01*
X214058726Y-87483527D01*
X214069734Y-87481338D01*
X214070870Y-87480201D01*
X214074251Y-87479276D01*
X214140918Y-87445943D01*
X214149782Y-87439063D01*
X214159111Y-87432830D01*
X214192444Y-87399496D01*
X214198674Y-87390171D01*
X214205556Y-87381305D01*
X214233153Y-87326110D01*
X214396850Y-87469346D01*
X214414098Y-87479278D01*
X214416158Y-87481338D01*
X214417675Y-87481338D01*
X214420519Y-87482976D01*
X214445095Y-87481338D01*
X214469734Y-87481338D01*
X214471493Y-87479578D01*
X214473976Y-87479413D01*
X214490195Y-87460877D01*
X214507618Y-87443454D01*
X214508258Y-87440232D01*
X214509256Y-87439093D01*
X214509062Y-87436191D01*
X214512946Y-87416666D01*
X214512946Y-86983333D01*
X214507618Y-86956545D01*
X214469734Y-86918661D01*
X214416158Y-86918661D01*
X214378274Y-86956545D01*
X214372946Y-86983333D01*
X214372946Y-87262402D01*
X214222375Y-87130653D01*
X214205125Y-87120718D01*
X214203068Y-87118661D01*
X214201553Y-87118661D01*
X214198707Y-87117022D01*
X214174123Y-87118661D01*
X214149492Y-87118661D01*
X214147732Y-87120420D01*
X214145249Y-87120586D01*
X214129023Y-87139130D01*
X214111608Y-87156545D01*
X214110967Y-87159764D01*
X214109969Y-87160906D01*
X214110162Y-87163811D01*
X214106280Y-87183333D01*
X214106280Y-87266807D01*
X214085415Y-87308535D01*
X214068146Y-87325803D01*
X214026421Y-87346666D01*
X213892805Y-87346666D01*
X213851078Y-87325803D01*
X213833809Y-87308533D01*
X213812946Y-87266807D01*
X213812946Y-87099858D01*
X213833811Y-87058128D01*
X213859110Y-87032830D01*
X213874285Y-87010121D01*
X213874285Y-86956545D01*
X213836401Y-86918661D01*
X213782825Y-86918661D01*
X213760116Y-86933836D01*
X213726783Y-86967169D01*
X213720551Y-86976494D01*
X213713670Y-86985361D01*
X213680336Y-87052028D01*
X213679410Y-87055408D01*
X213678274Y-87056545D01*
X213676085Y-87067549D01*
X213673122Y-87078370D01*
X213673629Y-87079894D01*
X213672946Y-87083333D01*
X213595168Y-87083333D01*
X213595168Y-86840883D01*
X214590724Y-86840883D01*
X214590724Y-88831111D01*
G37*
G36*
X208215953Y-82666045D02*
G01*
X208265588Y-82690863D01*
X208312537Y-82737811D01*
X208337053Y-82811358D01*
X208337053Y-82896666D01*
X207777053Y-82896666D01*
X207777053Y-82811358D01*
X207801568Y-82737811D01*
X207848517Y-82690862D01*
X207898153Y-82666044D01*
X208015670Y-82636666D01*
X208098436Y-82636666D01*
X208215953Y-82666045D01*
G37*
G36*
X208554831Y-84581110D02*
G01*
X207559275Y-84581110D01*
X207559275Y-84099999D01*
X207637053Y-84099999D01*
X207637053Y-84199999D01*
X207639241Y-84211003D01*
X207640645Y-84222135D01*
X207673978Y-84322135D01*
X207675714Y-84325180D01*
X207675714Y-84326787D01*
X207681946Y-84336113D01*
X207687504Y-84345863D01*
X207688941Y-84346581D01*
X207690889Y-84349496D01*
X207757555Y-84416163D01*
X207766881Y-84422394D01*
X207775748Y-84429276D01*
X207842416Y-84462609D01*
X207849809Y-84464633D01*
X207856743Y-84467909D01*
X207990075Y-84501242D01*
X207998641Y-84501659D01*
X208007053Y-84503332D01*
X208107053Y-84503332D01*
X208115464Y-84501658D01*
X208124030Y-84501242D01*
X208257363Y-84467909D01*
X208264295Y-84464634D01*
X208271691Y-84462609D01*
X208338358Y-84429276D01*
X208347228Y-84422391D01*
X208356550Y-84416163D01*
X208423217Y-84349497D01*
X208425165Y-84346581D01*
X208426602Y-84345863D01*
X208432157Y-84336116D01*
X208438392Y-84326787D01*
X208438392Y-84325180D01*
X208440128Y-84322135D01*
X208473461Y-84222135D01*
X208474864Y-84211003D01*
X208477053Y-84199999D01*
X208477053Y-84133332D01*
X208474864Y-84122327D01*
X208473461Y-84111196D01*
X208440128Y-84011196D01*
X208438392Y-84008150D01*
X208438392Y-84006543D01*
X208432155Y-83997210D01*
X208426602Y-83987468D01*
X208425165Y-83986749D01*
X208423217Y-83983834D01*
X208389883Y-83950501D01*
X208367176Y-83935329D01*
X208367174Y-83935327D01*
X208340386Y-83929999D01*
X208107053Y-83929999D01*
X208080265Y-83935327D01*
X208042381Y-83973211D01*
X208037053Y-83999999D01*
X208037053Y-84133332D01*
X208042381Y-84160120D01*
X208080265Y-84198004D01*
X208133841Y-84198004D01*
X208171725Y-84160120D01*
X208177053Y-84133332D01*
X208177053Y-84069999D01*
X208311392Y-84069999D01*
X208312537Y-84071144D01*
X208337053Y-84144691D01*
X208337053Y-84188639D01*
X208312537Y-84262186D01*
X208265589Y-84309135D01*
X208215954Y-84333952D01*
X208098436Y-84363332D01*
X208015670Y-84363332D01*
X207898152Y-84333952D01*
X207848517Y-84309135D01*
X207801568Y-84262187D01*
X207777053Y-84188639D01*
X207777053Y-84116523D01*
X207802996Y-84064636D01*
X207810210Y-84038294D01*
X207793268Y-83987467D01*
X207745348Y-83963507D01*
X207694521Y-83980450D01*
X207677776Y-84002027D01*
X207644443Y-84068694D01*
X207643517Y-84072074D01*
X207642381Y-84073211D01*
X207640191Y-84084218D01*
X207637229Y-84095037D01*
X207637736Y-84096560D01*
X207637053Y-84099999D01*
X207559275Y-84099999D01*
X207559275Y-83708827D01*
X207637611Y-83708827D01*
X207642381Y-83717174D01*
X207642381Y-83726787D01*
X207655198Y-83739604D01*
X207664193Y-83755344D01*
X207673467Y-83757873D01*
X207680265Y-83764671D01*
X207707053Y-83769999D01*
X208407053Y-83769999D01*
X208433841Y-83764671D01*
X208471725Y-83726787D01*
X208471725Y-83673211D01*
X208433841Y-83635327D01*
X208407053Y-83629999D01*
X207970643Y-83629999D01*
X208441783Y-83360776D01*
X208462398Y-83342859D01*
X208464927Y-83333584D01*
X208471725Y-83326787D01*
X208471725Y-83308660D01*
X208476495Y-83291171D01*
X208471725Y-83282823D01*
X208471725Y-83273211D01*
X208458908Y-83260394D01*
X208449914Y-83244654D01*
X208440638Y-83242124D01*
X208433841Y-83235327D01*
X208407053Y-83229999D01*
X207707053Y-83229999D01*
X207680265Y-83235327D01*
X207642381Y-83273211D01*
X207642381Y-83326787D01*
X207680265Y-83364671D01*
X207707053Y-83369999D01*
X208143463Y-83369999D01*
X207672323Y-83639222D01*
X207651708Y-83657139D01*
X207649178Y-83666413D01*
X207642381Y-83673211D01*
X207642381Y-83691337D01*
X207637611Y-83708827D01*
X207559275Y-83708827D01*
X207559275Y-82799999D01*
X207637053Y-82799999D01*
X207637053Y-82966666D01*
X207642381Y-82993454D01*
X207680265Y-83031338D01*
X207707053Y-83036666D01*
X208407053Y-83036666D01*
X208433841Y-83031338D01*
X208471725Y-82993454D01*
X208477053Y-82966666D01*
X208477053Y-82799999D01*
X208474864Y-82788994D01*
X208473461Y-82777863D01*
X208440128Y-82677863D01*
X208438392Y-82674817D01*
X208438392Y-82673211D01*
X208432157Y-82663881D01*
X208426602Y-82654135D01*
X208425165Y-82653416D01*
X208423217Y-82650501D01*
X208356550Y-82583835D01*
X208347219Y-82577600D01*
X208338358Y-82570723D01*
X208271691Y-82537389D01*
X208264294Y-82535363D01*
X208257363Y-82532089D01*
X208124030Y-82498756D01*
X208115464Y-82498339D01*
X208107053Y-82496666D01*
X208007053Y-82496666D01*
X207998641Y-82498338D01*
X207990075Y-82498756D01*
X207856743Y-82532089D01*
X207849812Y-82535363D01*
X207842414Y-82537389D01*
X207775748Y-82570723D01*
X207766884Y-82577602D01*
X207757556Y-82583835D01*
X207690889Y-82650501D01*
X207688940Y-82653416D01*
X207687504Y-82654135D01*
X207681950Y-82663877D01*
X207675714Y-82673210D01*
X207675714Y-82674817D01*
X207673978Y-82677863D01*
X207640645Y-82777863D01*
X207639241Y-82788994D01*
X207637053Y-82799999D01*
X207559275Y-82799999D01*
X207559275Y-82418888D01*
X208554831Y-82418888D01*
X208554831Y-84581110D01*
G37*
G36*
X205304831Y-84147430D02*
G01*
X204309275Y-84147430D01*
X204309275Y-83633333D01*
X204387053Y-83633333D01*
X204387053Y-83966666D01*
X204390383Y-83983411D01*
X204390036Y-83986886D01*
X204391408Y-83988563D01*
X204392381Y-83993454D01*
X204409040Y-84010113D01*
X204423963Y-84028352D01*
X204428733Y-84029806D01*
X204430265Y-84031338D01*
X204433755Y-84031338D01*
X204450088Y-84036319D01*
X204783420Y-84069652D01*
X204810606Y-84067015D01*
X204813471Y-84064671D01*
X204817174Y-84064671D01*
X204833838Y-84048006D01*
X204852071Y-84033089D01*
X204852439Y-84029405D01*
X204855058Y-84026787D01*
X204855058Y-84003219D01*
X204857402Y-83979779D01*
X204855058Y-83976914D01*
X204855058Y-83973211D01*
X204839883Y-83950502D01*
X204814583Y-83925202D01*
X204793720Y-83883474D01*
X204793720Y-83749857D01*
X204814583Y-83708129D01*
X204831849Y-83690863D01*
X204873578Y-83669999D01*
X205007194Y-83669999D01*
X205048920Y-83690862D01*
X205066190Y-83708131D01*
X205087053Y-83749857D01*
X205087053Y-83883474D01*
X205066190Y-83925200D01*
X205040889Y-83950501D01*
X205025714Y-83973210D01*
X205025714Y-84026786D01*
X205063597Y-84064671D01*
X205117173Y-84064671D01*
X205139883Y-84049497D01*
X205173217Y-84016164D01*
X205179450Y-84006835D01*
X205186330Y-83997971D01*
X205219663Y-83931303D01*
X205220588Y-83927923D01*
X205221725Y-83926787D01*
X205223914Y-83915778D01*
X205226877Y-83904961D01*
X205226369Y-83903437D01*
X205227053Y-83899999D01*
X205227053Y-83733333D01*
X205226369Y-83729894D01*
X205226877Y-83728371D01*
X205223914Y-83717553D01*
X205221725Y-83706545D01*
X205220588Y-83705408D01*
X205219663Y-83702029D01*
X205186330Y-83635361D01*
X205179450Y-83626496D01*
X205173217Y-83617168D01*
X205139883Y-83583835D01*
X205130554Y-83577602D01*
X205121691Y-83570723D01*
X205055026Y-83537389D01*
X205051643Y-83536462D01*
X205050508Y-83535327D01*
X205039504Y-83533138D01*
X205028683Y-83530175D01*
X205027158Y-83530682D01*
X205023720Y-83529999D01*
X204857053Y-83529999D01*
X204853614Y-83530682D01*
X204852090Y-83530175D01*
X204841268Y-83533138D01*
X204830265Y-83535327D01*
X204829129Y-83536462D01*
X204825747Y-83537389D01*
X204759081Y-83570723D01*
X204750214Y-83577604D01*
X204740889Y-83583836D01*
X204707556Y-83617169D01*
X204701327Y-83626490D01*
X204694443Y-83635361D01*
X204661110Y-83702028D01*
X204660184Y-83705408D01*
X204659048Y-83706545D01*
X204656858Y-83717552D01*
X204653896Y-83728371D01*
X204654403Y-83729894D01*
X204653720Y-83733333D01*
X204653720Y-83899999D01*
X204654403Y-83903437D01*
X204653896Y-83904961D01*
X204656858Y-83915779D01*
X204656963Y-83916307D01*
X204527053Y-83903316D01*
X204527053Y-83633333D01*
X204521725Y-83606545D01*
X204483841Y-83568661D01*
X204430265Y-83568661D01*
X204392381Y-83606545D01*
X204387053Y-83633333D01*
X204309275Y-83633333D01*
X204309275Y-82938294D01*
X204387229Y-82938294D01*
X204411189Y-82986214D01*
X204434917Y-82999740D01*
X204935693Y-83166665D01*
X204434917Y-83333591D01*
X204411189Y-83347117D01*
X204387229Y-83395037D01*
X204404171Y-83445863D01*
X204452091Y-83469823D01*
X204479189Y-83466407D01*
X205179189Y-83233074D01*
X205202918Y-83219548D01*
X205205257Y-83214868D01*
X205209935Y-83212530D01*
X205216951Y-83191482D01*
X205226878Y-83171628D01*
X205225223Y-83166664D01*
X205226877Y-83161704D01*
X205216954Y-83141858D01*
X205209935Y-83120802D01*
X205205256Y-83118462D01*
X205202917Y-83113784D01*
X205179189Y-83100258D01*
X204479189Y-82866924D01*
X204452091Y-82863508D01*
X204404171Y-82887468D01*
X204387229Y-82938294D01*
X204309275Y-82938294D01*
X204309275Y-82785730D01*
X205304831Y-82785730D01*
X205304831Y-84147430D01*
G37*
D11*
%TO.C,TP6*%
X218260000Y-86850000D02*
X217760000Y-86850000D01*
X218260000Y-86850000D02*
X218260000Y-87350000D01*
X214750000Y-86840000D02*
X215250000Y-86840000D01*
X214750000Y-86840000D02*
X214750000Y-87340000D01*
X214720000Y-88810000D02*
X215220000Y-88810000D01*
X214720000Y-88310000D02*
X214720000Y-88810000D01*
X218280000Y-88830000D02*
X217780000Y-88830000D01*
X218280000Y-88830000D02*
X218280000Y-88330000D01*
%TO.C,TP5*%
X218280000Y-92130000D02*
X218280000Y-91630000D01*
X218280000Y-92130000D02*
X217780000Y-92130000D01*
X214720000Y-91610000D02*
X214720000Y-92110000D01*
X214720000Y-92110000D02*
X215220000Y-92110000D01*
X214750000Y-90140000D02*
X214750000Y-90640000D01*
X214750000Y-90140000D02*
X215250000Y-90140000D01*
X218260000Y-90150000D02*
X218260000Y-90650000D01*
X218260000Y-90150000D02*
X217760000Y-90150000D01*
%TO.C,TP4*%
X210200000Y-97260000D02*
X210200000Y-96760000D01*
X210200000Y-97260000D02*
X209700000Y-97260000D01*
X210210000Y-93750000D02*
X210210000Y-94250000D01*
X210210000Y-93750000D02*
X209710000Y-93750000D01*
X208240000Y-93720000D02*
X208240000Y-94220000D01*
X208740000Y-93720000D02*
X208240000Y-93720000D01*
X208220000Y-97280000D02*
X208220000Y-96780000D01*
X208220000Y-97280000D02*
X208720000Y-97280000D01*
%TO.C,TP3*%
X211220000Y-97280000D02*
X211720000Y-97280000D01*
X211220000Y-97280000D02*
X211220000Y-96780000D01*
X211740000Y-93720000D02*
X211240000Y-93720000D01*
X211240000Y-93720000D02*
X211240000Y-94220000D01*
X213210000Y-93750000D02*
X212710000Y-93750000D01*
X213210000Y-93750000D02*
X213210000Y-94250000D01*
X213200000Y-97260000D02*
X212700000Y-97260000D01*
X213200000Y-97260000D02*
X213200000Y-96760000D01*
%TO.C,TP2*%
X210630000Y-81720000D02*
X210130000Y-81720000D01*
X210630000Y-81720000D02*
X210630000Y-82220000D01*
X210110000Y-85280000D02*
X210610000Y-85280000D01*
X210610000Y-85280000D02*
X210610000Y-84780000D01*
X208640000Y-85250000D02*
X209140000Y-85250000D01*
X208640000Y-85250000D02*
X208640000Y-84750000D01*
X208650000Y-81740000D02*
X209150000Y-81740000D01*
X208650000Y-81740000D02*
X208650000Y-82240000D01*
%TO.C,TP1*%
X207330000Y-81720000D02*
X206830000Y-81720000D01*
X207330000Y-81720000D02*
X207330000Y-82220000D01*
X206810000Y-85280000D02*
X207310000Y-85280000D01*
X207310000Y-85280000D02*
X207310000Y-84780000D01*
X205340000Y-85250000D02*
X205840000Y-85250000D01*
X205340000Y-85250000D02*
X205340000Y-84750000D01*
X205350000Y-81740000D02*
X205850000Y-81740000D01*
X205350000Y-81740000D02*
X205350000Y-82240000D01*
D12*
%TO.C,C4*%
X209185000Y-91061252D02*
X209185000Y-90538748D01*
X207715000Y-91061252D02*
X207715000Y-90538748D01*
%TO.C,C11*%
X211872500Y-87320580D02*
X211872500Y-87039420D01*
X210852500Y-87320580D02*
X210852500Y-87039420D01*
%TO.C,C8*%
X203710000Y-92215580D02*
X203710000Y-91934420D01*
X202690000Y-92215580D02*
X202690000Y-91934420D01*
%TO.C,L1*%
X197440000Y-86990000D02*
X198290000Y-86990000D01*
X197440000Y-91710000D02*
X197440000Y-86990000D01*
X197440000Y-91710000D02*
X198290000Y-91710000D01*
X202160000Y-86990000D02*
X201310000Y-86990000D01*
X202160000Y-91710000D02*
X201310000Y-91710000D01*
X202160000Y-91710000D02*
X202160000Y-86990000D01*
%TO.C,C12*%
X213360000Y-87315580D02*
X213360000Y-87034420D01*
X212340000Y-87315580D02*
X212340000Y-87034420D01*
%TO.C,C10*%
X203265000Y-87138748D02*
X203265000Y-87661252D01*
X204735000Y-87138748D02*
X204735000Y-87661252D01*
%TO.C,C2*%
X211235000Y-91061252D02*
X211235000Y-90538748D01*
X209765000Y-91061252D02*
X209765000Y-90538748D01*
%TO.C,C9*%
X205240000Y-87039420D02*
X205240000Y-87320580D01*
X206260000Y-87039420D02*
X206260000Y-87320580D01*
%TO.C,U2*%
X204140000Y-92645000D02*
X204140000Y-93445000D01*
X204140000Y-92645000D02*
X204140000Y-91845000D01*
X207260000Y-92645000D02*
X207260000Y-93445000D01*
X207260000Y-92645000D02*
X207260000Y-91845000D01*
X204190000Y-93945000D02*
X203860000Y-94185000D01*
X203860000Y-93705000D01*
X204190000Y-93945000D01*
G36*
X204190000Y-93945000D02*
G01*
X203860000Y-94185000D01*
X203860000Y-93705000D01*
X204190000Y-93945000D01*
G37*
%TO.C,C5*%
X205890580Y-89340000D02*
X205609420Y-89340000D01*
X205890580Y-90360000D02*
X205609420Y-90360000D01*
%TO.C,U3*%
X207287500Y-85890000D02*
X207047500Y-85560000D01*
X207527500Y-85560000D01*
X207287500Y-85890000D01*
G36*
X207287500Y-85890000D02*
G01*
X207047500Y-85560000D01*
X207527500Y-85560000D01*
X207287500Y-85890000D01*
G37*
X208587500Y-85840000D02*
X209387500Y-85840000D01*
X208587500Y-85840000D02*
X207787500Y-85840000D01*
X208587500Y-88960000D02*
X209387500Y-88960000D01*
X208587500Y-88960000D02*
X207787500Y-88960000D01*
%TO.C,C1*%
X213285000Y-91061252D02*
X213285000Y-90538748D01*
X211815000Y-91061252D02*
X211815000Y-90538748D01*
%TO.C,R1*%
X206062258Y-96387500D02*
X205587742Y-96387500D01*
X206062258Y-97432500D02*
X205587742Y-97432500D01*
%TO.C,R2*%
X205587742Y-95972500D02*
X206062258Y-95972500D01*
X205587742Y-94927500D02*
X206062258Y-94927500D01*
%TD*%
%LPC*%
D13*
%TO.C,TP6*%
X216500000Y-87850000D03*
%TD*%
%TO.C,TP5*%
X216500000Y-91150000D03*
%TD*%
D14*
%TO.C,TP4*%
X209200000Y-95500000D03*
%TD*%
%TO.C,TP3*%
X212200000Y-95500000D03*
%TD*%
%TO.C,TP2*%
X209650000Y-83500000D03*
%TD*%
%TO.C,TP1*%
X206350000Y-83500000D03*
%TD*%
D15*
%TO.C,H4*%
X216000000Y-84000000D03*
%TD*%
%TO.C,H3*%
X200000000Y-84000000D03*
%TD*%
%TO.C,H2*%
X200000000Y-95000000D03*
%TD*%
%TO.C,H1*%
X216000000Y-95000000D03*
%TD*%
D16*
%TO.C,C4*%
X208450000Y-89850000D03*
X208450000Y-91750000D03*
%TD*%
D17*
%TO.C,C11*%
X211362500Y-87955000D03*
X211362500Y-86405000D03*
%TD*%
%TO.C,C8*%
X203200000Y-91300000D03*
X203200000Y-92850000D03*
%TD*%
D18*
%TO.C,L1*%
X199800000Y-91200000D03*
X199800000Y-87500000D03*
%TD*%
D17*
%TO.C,C12*%
X212850000Y-87950000D03*
X212850000Y-86400000D03*
%TD*%
D19*
%TO.C,C10*%
X204000000Y-86450000D03*
X204000000Y-88350000D03*
%TD*%
D16*
%TO.C,C2*%
X210500000Y-89850000D03*
X210500000Y-91750000D03*
%TD*%
D20*
%TO.C,C9*%
X205750000Y-86405000D03*
X205750000Y-87955000D03*
%TD*%
D21*
%TO.C,U2*%
X204750000Y-93782500D03*
X205700000Y-93782500D03*
X206650000Y-93782500D03*
X206650000Y-91507500D03*
X205700000Y-91507500D03*
X204750000Y-91507500D03*
%TD*%
D22*
%TO.C,C5*%
X204975000Y-89850000D03*
X206525000Y-89850000D03*
%TD*%
D23*
%TO.C,U3*%
X209725000Y-86450000D03*
X209725000Y-88350000D03*
X207450000Y-88350000D03*
X207450000Y-87400000D03*
X207450000Y-86450000D03*
%TD*%
D16*
%TO.C,C1*%
X212550000Y-89850000D03*
X212550000Y-91750000D03*
%TD*%
D24*
%TO.C,R1*%
X206650000Y-96910000D03*
X205000000Y-96910000D03*
%TD*%
D25*
%TO.C,R2*%
X206650000Y-95450000D03*
X205000000Y-95450000D03*
%TD*%
%LPD*%
M02*
